SplineFontDB: 3.0
FontName: Grotesk
FullName: Grotesk
FamilyName: Grotesk
Weight: Medium
Copyright: Created with FontForge 2.0 (http://fontforge.sf.net)
UComments: "2010-6-20: Created." 
Version: 001.000
ItalicAngle: 0
UnderlinePosition: -100
UnderlineWidth: 50
Ascent: 800
Descent: 200
LayerCount: 2
Layer: 0 0 "Arri+AOgA-re"  1
Layer: 1 0 "Avant"  0
XUID: [1021 420 4520 12169]
FSType: 0
OS2Version: 0
OS2_WeightWidthSlopeOnly: 0
OS2_UseTypoMetrics: 1
CreationTime: 1277064387
ModificationTime: 1288118900
OS2TypoAscent: 0
OS2TypoAOffset: 1
OS2TypoDescent: 0
OS2TypoDOffset: 1
OS2TypoLinegap: 90
OS2WinAscent: 0
OS2WinAOffset: 1
OS2WinDescent: 0
OS2WinDOffset: 1
HheadAscent: 0
HheadAOffset: 1
HheadDescent: 0
HheadDOffset: 1
MarkAttachClasses: 1
DEI: 91125
Encoding: UnicodeBmp
UnicodeInterp: none
NameList: Adobe Glyph List
DisplaySize: -24
AntiAlias: 1
FitToEm: 1
WinInfo: 45 45 10
Grid
-1000 706 m 0
 2000 706 l 0
-1000 650 m 0
 2000 650 l 0
  Named: "maj" 
-1000 -138 m 0
-1000 616 m 0
EndSplineSet
BeginChars: 65536 118

StartChar: zero
Encoding: 48 48 0
Width: 813
VWidth: 0
Flags: W
HStem: 0 106.125<333.063 480.485> 383.25 106.125<335.028 479.617>
VStem: 162 106.125<170.908 317.776> 545.25 106.5<170.906 318.314>
LayerCount: 2
Fore
SplineSet
400.594 489.375 m 4
 402.697 489.428 404.76 489.375 406.875 489.375 c 4
 541.91 489.375 651.75 379.913 651.75 244.5 c 4
 651.75 109.453 541.91 0 406.875 0 c 4
 271.474 0 162 109.465 162 244.5 c 4
 162 377.786 268.122 486.026 400.594 489.375 c 4
406.875 383.25 m 4
 330.334 383.25 268.125 321.041 268.125 244.5 c 4
 268.125 168.316 330.334 106.125 406.875 106.125 c 4
 483.059 106.125 545.25 168.316 545.25 244.5 c 4
 545.25 321.041 483.059 383.25 406.875 383.25 c 4
EndSplineSet
Validated: 524289
EndChar

StartChar: J
Encoding: 74 74 1
Width: 681
VWidth: 0
Flags: W
HStem: -52 117.375<286.816 363.311> 630 20G<372.438 490.188> 630 20G<372.438 490.188>
VStem: 159.812 117.75<75.0975 107.375 107.375 224.75> 372.438 117.75<75.0975 107.375 107.375 650>
LayerCount: 2
Fore
SplineSet
372.438 650 m 5xd8
 378.062 650 l 5
 383.688 650 l 5
 484.562 650 l 5
 490.188 650 l 5
 490.188 644.375 l 5
 490.188 118.625 l 5
 490.188 113 l 5
 490.188 107.375 l 5
 490.094 107.375 l 5
 487.123 18.8047 414.112 -52 325.188 -52 c 4
 235.908 -52 162.877 18.8047 159.906 107.375 c 5
 159.812 107.375 l 5
 159.812 113 l 5
 159.812 118.625 l 5
 159.812 213.5 l 5
 159.812 219.125 l 5
 159.812 224.75 l 5
 165.438 224.75 l 5
 171.062 224.75 l 5
 271.938 224.75 l 5
 277.562 224.75 l 5
 277.562 219.125 l 5
 277.562 118.625 l 5
 277.562 113 l 6
 277.562 86.7793 298.601 65.375 325.188 65.375 c 4
 351.361 65.375 372.438 86.7793 372.438 113 c 6
 372.438 638.75 l 5
 372.438 644.375 l 5
 372.438 650 l 5xd8
EndSplineSet
Validated: 524289
EndChar

StartChar: H
Encoding: 72 72 2
Width: 820
VWidth: 0
Flags: W
HStem: 0 21G<191 308.375 509.75 627.5> 0 21G<191 308.375 509.75 627.5> 265.5 117.75<308.375 509.75> 629.125 20G<191 308.375 509.75 627.5> 629.125 20G<191 308.375 509.75 627.5>
VStem: 191 117.375<0 265.5 383.25 649.125> 509.75 117.75<0 265.5 383.25 649.125>
LayerCount: 2
Fore
SplineSet
191 649.125 m 5xb6
 196.625 649.125 l 5
 202.25 649.125 l 5
 302.75 649.125 l 5
 308.375 649.125 l 5
 308.375 643.5 l 5
 308.375 383.25 l 5
 509.75 383.25 l 5
 509.75 637.875 l 5
 509.75 643.5 l 5
 509.75 649.125 l 5
 515.375 649.125 l 5
 521 649.125 l 5
 621.875 649.125 l 5
 627.5 649.125 l 5
 627.5 643.5 l 5
 627.5 11.25 l 5
 627.5 0 l 5
 621.875 0 l 5
 521 0 l 5
 515.375 0 l 5
 509.75 0 l 5
 509.75 5.625 l 5
 509.75 265.5 l 5
 308.375 265.5 l 5
 308.375 11.25 l 5
 308.375 0 l 5
 302.75 0 l 5
 202.25 0 l 5
 196.625 0 l 5
 191 0 l 5
 191 5.625 l 5
 191 11.25 l 5
 191 637.875 l 5
 191 643.5 l 5
 191 649.125 l 5xb6
EndSplineSet
Validated: 524289
EndChar

StartChar: C
Encoding: 67 67 3
Width: 786
VWidth: 0
Flags: W
HStem: 0 117.375<405.225 485.125 485.125 602.5> 531.375 117.75<405.225 485.125 485.125 602.5>
VStem: 166 117.75<235.589 413.241>
LayerCount: 2
Fore
SplineSet
485.125 649.125 m 5
 490.75 649.125 l 5
 496.375 649.125 l 5
 596.875 649.125 l 5
 602.5 649.125 l 5
 602.5 643.5 l 5
 602.5 542.625 l 5
 602.5 531.375 l 5
 596.875 531.375 l 5
 490.75 531.375 l 6
 376.419 531.375 283.75 438.706 283.75 324.375 c 4
 283.75 210.044 376.419 117.375 490.75 117.375 c 6
 596.875 117.375 l 5
 602.5 117.375 l 5
 602.5 111.75 l 5
 602.5 11.25 l 5
 602.5 0 l 5
 596.875 0 l 5
 496.375 0 l 5
 490.75 0 l 5
 485.125 0 l 5
 485.125 0.09375 l 5
 308.441 3.11426 166 147.34 166 324.375 c 4
 166 501.776 308.441 646.011 485.125 649.031 c 5
 485.125 649.125 l 5
EndSplineSet
Validated: 524289
EndChar

StartChar: A
Encoding: 65 65 4
Width: 829
VWidth: 0
Flags: W
HStem: -1.5625 11.25<141.5 143 682.531 684.125> 157.812 117.376<349.812 476.094> 629.062 20G<355.719 360.688 464.938 470> 629.062 20G<355.719 360.688 464.938 470>
LayerCount: 2
Fore
SplineSet
412.906 464.562 m 1xc0
 349.812 275.188 l 1
 359.75 275.188 l 1
 465.875 275.188 l 1
 476.094 275.188 l 1
 412.906 464.562 l 1xc0
356.188 649.062 m 1xe0
 360.688 647.562 l 1
 464.938 647.562 l 1
 469.438 649.062 l 1
 470 647.562 l 1
 471.5 647.562 l 1
 471.5 643.156 l 1
 682.531 9.6875 l 1
 684.125 9.6875 l 1
 684.125 5 l 1
 685.625 0.40625 l 1
 684.125 -0.0625 l 1
 684.125 -1.5625 l 1
 679.531 -1.5625 l 1
 674.938 -3.0625 l 1
 674.469 -1.5625 l 1
 573.312 -1.5625 l 1
 568.812 -3.0625 l 1
 568.344 -1.5625 l 1
 566.75 -1.5625 l 1
 566.75 3.21875 l 1
 515.188 157.812 l 1
 310.719 157.812 l 1
 259.25 3.5 l 1
 259.25 -1.5625 l 1
 257.656 -1.5625 l 1
 257.188 -3.0625 l 1
 252.688 -1.5625 l 1
 151.25 -1.5625 l 1
 150.688 -3.0625 l 1
 146.188 -1.5625 l 1
 141.5 -1.5625 l 1
 141.5 0.03125 l 1
 140 0.5 l 1
 141.5 5.28125 l 1
 141.5 9.6875 l 1
 143 9.6875 l 1
 354.125 642.875 l 1
 354.125 647.562 l 1
 355.719 647.562 l 1
 356.188 649.062 l 1xe0
EndSplineSet
Validated: 524289
EndChar

StartChar: B
Encoding: 66 66 5
Width: 788
VWidth: 0
Flags: W
HStem: 1.4375 117.374<308.75 414.875 414.875 468.138> 214.25 117.375<308.75 365.718> 532.625 117.75<308.75 361.991>
VStem: 191 117.75<118.812 214.25 331.625 532.625 650.375 650.562> 403.625 117.375<401.266 492.776> 509.75 117.75<159.121 281.638>
LayerCount: 2
Fore
SplineSet
191 650.562 m 5xf4
 196.625 650.562 l 5
 202.25 650.562 l 5
 303.125 650.562 l 5
 308.75 650.562 l 5
 308.75 650.375 l 5
 426.562 647.384 521 550.836 521 432.312 c 4xf8
 521 424.054 520.48 415.956 519.594 407.938 c 5
 584.141 369.975 627.5 299.861 627.5 219.688 c 4
 627.5 101.167 532.678 4.63965 414.875 1.625 c 5
 414.875 1.4375 l 5
 409.25 1.4375 l 5
 308.75 1.4375 l 5
 303.125 1.4375 l 5
 202.25 1.4375 l 5
 196.625 1.4375 l 5
 191 1.4375 l 5
 191 7.0625 l 5
 191 12.6875 l 5
 191 639.312 l 5
 191 644.938 l 5
 191 650.562 l 5xf4
308.75 532.625 m 5
 308.75 331.625 l 5
 361.619 334.511 403.625 378.345 403.625 432.312 c 4
 403.625 485.899 361.619 529.745 308.75 532.625 c 5
473.844 296.656 m 5
 435.037 247.672 375.673 215.946 308.75 214.25 c 5
 308.75 118.812 l 5
 409.25 118.812 l 6
 464.697 118.812 509.75 163.845 509.75 219.688 c 4xf4
 509.75 250.566 495.816 278.199 473.844 296.656 c 5
EndSplineSet
Validated: 524289
EndChar

StartChar: F
Encoding: 70 70 6
Width: 702
VWidth: 0
Flags: W
HStem: 0 21G<191 308.375> 0 21G<191 308.375> 265.5 117.75<308.375 521> 531.375 117.75<308.375 521>
VStem: 191 117.375<0 265.5 383.25 531.375> 191 330<265.5 383.25 531.375 649.125>
LayerCount: 2
Fore
SplineSet
149 218.25 m 0,0,-1
191 649.125 m 1,1,-1
 196.625 649.125 l 1,2,-1
 202.25 649.125 l 1,3,-1
 302.75 649.125 l 1,4,-1
 308.375 649.125 l 1,5,-1
 515.375 649.125 l 1,6,-1
 521 649.125 l 1,7,-1
 521 643.5 l 1,8,-1
 521 542.625 l 1,9,-1
 521 531.375 l 1,10,-1
 515.375 531.375 l 1,11,-1
 308.375 531.375 l 1,12,-1
 308.375 383.25 l 1,13,-1
 515.375 383.25 l 1,14,-1
 521 383.25 l 1,15,-1
 521 377.625 l 1,16,-1
 521 276.75 l 1,17,-1
 521 265.5 l 1,18,-1
 515.375 265.5 l 1,19,-1
 308.375 265.5 l 1,20,-1
 308.375 11.25 l 1,21,-1
 308.375 0 l 1,22,-1
 302.75 0 l 1,23,-1
 202.25 0 l 1,24,-1
 196.625 0 l 1,25,-1
 191 0 l 1,26,-1
 191 5.625 l 1,27,-1
 191 11.25 l 1,28,-1
 191 637.875 l 1,29,-1
 191 643.5 l 1,30,-1
 191 649.125 l 1,1,-1
EndSplineSet
Validated: 524289
EndChar

StartChar: G
Encoding: 71 71 7
Width: 794
VWidth: 0
Flags: W
HStem: 0.46875 117.47<404.934 484.75> 531.75 117.75<405.225 485.125 485.125 602.5>
VStem: 166 117.75<234.502 413.616> 484.75 117.75<0.375 0.46875 117.938 269.625 649.406 649.5>
LayerCount: 2
Fore
SplineSet
485.125 649.5 m 1
 490.75 649.5 l 1
 496.375 649.5 l 1
 596.875 649.5 l 1
 602.5 649.5 l 1
 602.5 643.875 l 1
 602.5 543 l 1
 602.5 531.75 l 1
 596.875 531.75 l 1
 490.75 531.75 l 2
 376.419 531.75 283.75 439.081 283.75 324.75 c 0
 283.75 212.423 373.193 121.11 484.75 117.938 c 1
 484.75 264.938 l 1
 484.75 267.281 l 1
 484.75 269.625 l 1
 490.375 269.625 l 1
 496 269.625 l 1
 596.875 269.625 l 1
 602.5 269.625 l 1
 602.5 267.281 l 1
 602.5 117.75 l 1
 602.5 112.125 l 1
 602.5 11.625 l 1
 602.5 0.375 l 1
 596.875 0.375 l 1
 496.375 0.375 l 1
 496 0.375 l 1
 490.75 0.375 l 1
 490.375 0.375 l 1
 485.125 0.375 l 1
 484.75 0.375 l 1
 484.75 0.46875 l 1
 308.242 3.68555 166 147.838 166 324.75 c 0
 166 502.151 308.441 646.386 485.125 649.406 c 1
 485.125 649.5 l 1
EndSplineSet
Validated: 524289
EndChar

StartChar: D
Encoding: 68 68 8
Width: 798
VWidth: 0
Flags: W
HStem: 0.09375 117.375<308.75 391.836> 531.188 117.844<308.75 391.836>
VStem: 191 117.75<0 0.09375 117.469 531.188 649.031 649.125> 510.125 117.375<234.048 414.771>
LayerCount: 2
Fore
SplineSet
308.75 531.188 m 1
 308.75 117.469 l 1
 420.462 120.475 510.125 211.939 510.125 324.375 c 0
 510.125 436.811 420.462 528.185 308.75 531.188 c 1
191 649.125 m 1
 202.25 649.125 l 1
 297.5 649.125 l 1
 303.125 649.125 l 1
 308.75 649.125 l 1
 308.75 649.031 l 1
 485.079 646.011 627.5 501.776 627.5 324.375 c 0
 627.5 147.34 485.079 3.11426 308.75 0.09375 c 1
 308.75 0 l 1
 303.125 0 l 1
 245 0 l 1
 202.25 0 l 1
 196.625 0 l 1
 191 0 l 1
 191 5.625 l 1
 191 637.875 l 1
 191 643.5 l 1
 191 649.125 l 1
EndSplineSet
Validated: 524289
EndChar

StartChar: E
Encoding: 69 69 9
Width: 704
VWidth: 0
Flags: W
HStem: 0 117.375<308.375 521> 265.5 117.75<308.375 467.75> 531.375 117.75<308.375 521>
VStem: 191 117.375<117.375 265.5 383.25 531.375> 191 330<0 117.375 531.375 649.125>
LayerCount: 2
Fore
SplineSet
191 649.125 m 5xe8
 196.625 649.125 l 5
 202.25 649.125 l 5
 302.75 649.125 l 5
 308.375 649.125 l 5xf0
 515.375 649.125 l 5
 521 649.125 l 5
 521 643.5 l 5
 521 542.625 l 5
 521 531.375 l 5xe8
 515.375 531.375 l 5
 308.375 531.375 l 5
 308.375 383.25 l 5
 462.125 383.25 l 5
 467.75 383.25 l 5
 467.75 377.625 l 5
 467.75 276.75 l 5
 467.75 265.5 l 5
 462.125 265.5 l 5
 308.375 265.5 l 5
 308.375 117.375 l 5xf0
 515.375 117.375 l 5
 521 117.375 l 5
 521 111.75 l 5
 521 11.25 l 5
 521 0 l 5
 515.375 0 l 5
 302.75 0 l 5
 202.25 0 l 5
 196.625 0 l 5
 191 0 l 5
 191 5.625 l 5
 191 11.25 l 5
 191 637.875 l 5
 191 643.5 l 5
 191 649.125 l 5xe8
EndSplineSet
Validated: 524289
EndChar

StartChar: I
Encoding: 73 73 10
Width: 501
VWidth: 0
Flags: W
HStem: 1 21G<191 308.75> 1 21G<191 308.75> 629.75 20G<191 308.75> 629.75 20G<191 308.75>
VStem: 191 117.75<1 649.75>
LayerCount: 2
Fore
SplineSet
191 649.75 m 1xa8
 196.625 649.75 l 1
 202.25 649.75 l 1
 303.125 649.75 l 1
 308.75 649.75 l 1
 308.75 644.125 l 1
 308.75 12.25 l 1
 308.75 1 l 1
 303.125 1 l 1
 202.25 1 l 1
 196.625 1 l 1
 191 1 l 1
 191 6.625 l 1
 191 12.25 l 1
 191 638.5 l 1
 191 644.125 l 1
 191 649.75 l 1xa8
EndSplineSet
Validated: 524289
EndChar

StartChar: P
Encoding: 80 80 11
Width: 802
VWidth: 0
Flags: W
HStem: 0 21G<191 308.75> 0 21G<191 308.75> 212.25 117.75<308.75 414.875 414.875 468.144> 531.375 117.375<308.75 414.875 414.875 468.141>
VStem: 191 117.75<0 212.25 330 531.375> 510.125 117.375<370.085 491.135>
LayerCount: 2
Fore
SplineSet
191 648.75 m 5xbc
 196.625 648.75 l 5
 202.25 648.75 l 5
 303.125 648.75 l 5
 308.75 648.75 l 5
 409.25 648.75 l 5
 414.875 648.75 l 5
 414.875 648.562 l 5
 532.688 645.583 627.5 549.396 627.5 430.5 c 4
 627.5 311.965 532.695 215.432 414.875 212.438 c 5
 414.875 212.25 l 5
 409.25 212.25 l 5
 308.75 212.25 l 5
 308.75 11.25 l 5
 308.75 0 l 5
 303.125 0 l 5
 202.25 0 l 5
 196.625 0 l 5
 191 0 l 5
 191 5.625 l 5
 191 11.25 l 5
 191 637.5 l 5
 191 643.125 l 5
 191 648.75 l 5xbc
308.75 531.375 m 5
 308.75 330 l 5
 409.25 330 l 6
 465.093 330 510.125 375.053 510.125 430.5 c 4
 510.125 486.343 465.093 531.375 409.25 531.375 c 6
 308.75 531.375 l 5
EndSplineSet
Validated: 524289
EndChar

StartChar: K
Encoding: 75 75 12
Width: 809
VWidth: 0
Flags: W
HStem: 0.75 11.25<625.906 628.062> 532.125 117.375<520.344 628.062>
VStem: 191.938 117.375<0.75 213 330.75 638.25 638.25 649.5>
LayerCount: 2
Fore
SplineSet
191.938 649.5 m 5
 203.188 649.5 l 5
 298.062 649.5 l 5
 303.688 649.5 l 5
 309.312 649.5 l 5
 309.312 643.875 l 5
 309.312 638.25 l 5
 309.312 330.75 l 5
 352.906 330.75 l 5
 457.438 644.812 l 5
 457.438 649.5 l 5
 463.062 649.5 l 5
 622.438 649.5 l 5
 628.062 649.5 l 5
 628.062 643.875 l 5
 628.062 543.375 l 5
 628.062 532.125 l 5
 622.438 532.125 l 5
 520.344 532.125 l 5
 458.469 346.688 l 5
 465.5 332.625 l 5
 465.594 332.625 l 5
 468.125 327.656 l 5
 625.906 12 l 5
 628.062 12 l 5
 628.062 0.75 l 5
 622.438 0.75 l 5
 516.312 0.75 l 5
 510.688 0.75 l 5
 510.688 4.96875 l 5
 406.344 213 l 5
 309.312 213 l 5
 309.312 12 l 5
 309.312 0.75 l 5
 303.688 0.75 l 5
 203.188 0.75 l 5
 197.562 0.75 l 5
 191.938 0.75 l 5
 191.938 6.375 l 5
 191.938 638.25 l 5
 191.938 643.875 l 5
 191.938 649.5 l 5
EndSplineSet
Validated: 524289
EndChar

StartChar: L
Encoding: 76 76 13
Width: 724
VWidth: 0
Flags: W
HStem: 0 117.375<308.75 574.625> 629.125 20G<191 308.75> 629.125 20G<191 308.75>
VStem: 191 117.75<117.375 649.125>
LayerCount: 2
Fore
SplineSet
191 649.125 m 1xd0
 196.625 649.125 l 1
 202.25 649.125 l 1
 303.125 649.125 l 1
 308.75 649.125 l 1
 308.75 643.5 l 1
 308.75 117.375 l 1
 569 117.375 l 1
 574.625 117.375 l 1
 574.625 111.75 l 1
 574.625 11.25 l 1
 574.625 0 l 1
 569 0 l 1
 303.125 0 l 1
 202.25 0 l 1
 196.625 0 l 1
 191 0 l 1
 191 5.625 l 1
 191 11.25 l 1
 191 637.875 l 1
 191 643.5 l 1
 191 649.125 l 1xd0
EndSplineSet
Validated: 524289
EndChar

StartChar: M
Encoding: 77 77 14
Width: 1032
VWidth: 0
Flags: W
HStem: 0 21G<191 308.375 722.375 840.125> 0 21G<191 308.375 722.375 840.125> 629.125 20G<191 308.375 722.375 840.125> 629.125 20G<191 308.375 722.375 840.125>
VStem: 191 117.375<0 466.875 645.469 649.125> 722.375 117.75<0 466.875 645.562 649.125>
LayerCount: 2
Fore
SplineSet
191 643.5 m 5xac
 191 649.125 l 5
 196.625 649.125 l 5
 202.25 649.125 l 5
 300.781 649.125 l 5
 305.375 649.125 l 5
 308.375 649.125 l 5
 308.375 645.469 l 5
 515.375 386.625 l 5
 722.375 645.562 l 5
 722.375 649.125 l 5
 725.281 649.125 l 5
 729.875 649.125 l 5
 733.625 649.125 l 5
 834.5 649.125 l 5
 840.125 649.125 l 5
 840.125 643.5 l 5
 840.125 11.25 l 5
 840.125 0 l 5
 834.5 0 l 5
 733.625 0 l 5
 728 0 l 5
 722.375 0 l 5
 722.375 5.625 l 5
 722.375 466.875 l 5
 574.25 269.625 l 5
 574.25 265.875 l 5
 571.438 265.875 l 5
 569.75 263.625 l 5
 566.75 265.875 l 5
 464 265.875 l 5
 461 263.625 l 5
 459.312 265.875 l 5
 456.5 265.875 l 5
 456.5 269.625 l 5
 308.375 466.875 l 5
 308.375 11.25 l 5
 308.375 0 l 5
 302.75 0 l 5
 202.25 0 l 5
 196.625 0 l 5
 191 0 l 5
 191 5.625 l 5
 191 11.25 l 5
 191 637.875 l 5
 191 643.5 l 5xac
EndSplineSet
Validated: 524289
EndChar

StartChar: N
Encoding: 78 78 15
Width: 820
VWidth: 0
Flags: W
HStem: 0 21G<191 308.75 510.125 627.5> 0 21G<191 308.75 510.125 627.5> 631.375 20G<301.156 305.75 510.125 627.5>
VStem: 191 117.75<0 466.875 645.469 649.125> 510.125 117.375<0 265.875 393.75 649.125>
LayerCount: 2
Fore
SplineSet
303.969 651.375 m 5xb8
 305.75 649.125 l 5
 308.75 649.125 l 5
 308.75 645.469 l 5
 510.125 393.75 l 5
 510.125 637.875 l 5
 510.125 643.5 l 5
 510.125 649.125 l 5
 515.75 649.125 l 5
 521.375 649.125 l 5
 621.875 649.125 l 5
 627.5 649.125 l 5
 627.5 643.5 l 5
 627.5 11.25 l 5
 627.5 0 l 5
 621.875 0 l 5
 521.375 0 l 5
 515.75 0 l 5
 510.125 0 l 5
 510.125 5.625 l 5
 510.125 265.875 l 5
 464.375 265.875 l 5
 461.375 263.625 l 5
 459.688 265.875 l 5
 456.875 265.875 l 5
 456.875 269.625 l 5
 308.75 466.875 l 5
 308.75 11.25 l 5
 308.75 0 l 5
 303.125 0 l 5
 202.25 0 l 5
 196.625 0 l 5
 191 0 l 5
 191 5.625 l 5
 191 11.25 l 5
 191 637.875 l 5
 191 643.5 l 5
 191 649.125 l 5
 196.625 649.125 l 5
 202.25 649.125 l 5
 301.156 649.125 l 5
 303.969 651.375 l 5xb8
EndSplineSet
Validated: 524289
EndChar

StartChar: O
Encoding: 79 79 16
Width: 985
VWidth: 0
Flags: W
HStem: 0 117.375<401.438 580.049> 531.375 117.375<401.438 580.049>
VStem: 166 117.75<235.075 413.674> 697.75 117.375<235.076 413.673>
LayerCount: 2
Fore
SplineSet
490.75 531.375 m 0
 376.419 531.375 283.75 438.706 283.75 324.375 c 0
 283.75 210.041 376.419 117.375 490.75 117.375 c 0
 605.084 117.375 697.75 210.041 697.75 324.375 c 0
 697.75 438.706 605.084 531.375 490.75 531.375 c 0
490.75 648.75 m 0
 670.032 648.75 815.125 503.657 815.125 324.375 c 0
 815.125 145.093 670.032 0 490.75 0 c 0
 311.471 0 166 145.084 166 324.375 c 0
 166 503.663 311.471 648.75 490.75 648.75 c 0
EndSplineSet
Validated: 524289
EndChar

StartChar: Q
Encoding: 81 81 17
Width: 988
VWidth: 0
Flags: W
HStem: 0 11.25<759.812 761.875> 0 117.375<401.077 576.494> 212.25 11.25<538 540.156> 531.375 117.375<401.077 579.688>
VStem: 166 117.375<235.077 413.673> 697.375 117.75<233.438 413.674>
LayerCount: 2
Fore
SplineSet
490.375 531.375 m 4x7c
 376.044 531.375 283.375 438.706 283.375 324.375 c 4
 283.375 210.044 376.044 117.375 490.375 117.375 c 4
 521.646 117.375 551.271 124.374 577.844 136.781 c 5
 540.156 212.25 l 5
 538 212.25 l 5
 538 216.562 l 5
 536.125 220.406 l 5
 538 221.344 l 5
 538 223.5 l 5
 542.219 223.5 l 5
 546.156 225.469 l 5
 547.188 223.5 l 5
 648.25 223.5 l 5
 652.188 225.469 l 5
 653.219 223.5 l 5
 655.375 223.5 l 5
 655.375 219.281 l 5
 661.281 207.562 l 5
 684.054 240.809 697.375 281.019 697.375 324.375 c 4
 697.375 438.706 604.706 531.375 490.375 531.375 c 4x7c
490.375 648.75 m 4
 669.657 648.75 815.125 503.666 815.125 324.375 c 4
 815.125 233.988 778.1 152.355 718.469 93.5625 c 5
 759.812 11.25 l 5
 761.875 11.25 l 5
 761.875 7.125 l 5
 763.75 3.1875 l 5
 761.875 2.25 l 5
 761.875 0 l 5xbc
 757.469 0 l 5
 753.719 -1.875 l 5
 752.781 0 l 5
 650.969 0 l 5
 647.219 -1.875 l 5
 646.281 0 l 5
 644.125 0 l 5
 644.125 4.3125 l 5
 630.438 31.5938 l 5
 588.039 11.332 540.505 0 490.375 0 c 4
 311.093 0 166 145.093 166 324.375 c 4
 166 503.657 311.093 648.75 490.375 648.75 c 4
EndSplineSet
Validated: 524289
EndChar

StartChar: R
Encoding: 82 82 18
Width: 810
VWidth: 0
Flags: W
HStem: 0 11.25<625.438 627.5> 212.25 117.75<308.375 405.781> 531.375 117.375<308.375 414.875 414.875 468.134>
VStem: 191 117.375<0 212.25 330 531.375> 509.75 117.75<0 4.3125 369.414 491.131>
LayerCount: 2
Fore
SplineSet
191 648.75 m 1
 196.625 648.75 l 1
 202.25 648.75 l 1
 302.75 648.75 l 1
 308.375 648.75 l 1
 409.25 648.75 l 1
 414.875 648.75 l 1
 414.875 648.562 l 1
 532.666 645.56 627.5 549.381 627.5 430.5 c 0
 627.5 347.068 580.546 274.491 511.625 237.75 c 1
 517.812 225.469 l 1
 520.438 220.406 l 1
 625.438 11.25 l 1
 627.5 11.25 l 1
 627.5 0 l 1
 621.875 0 l 1
 515.375 0 l 1
 509.75 0 l 1
 509.75 4.3125 l 1
 405.781 212.25 l 1
 308.375 212.25 l 1
 308.375 11.25 l 1
 308.375 0 l 1
 302.75 0 l 1
 202.25 0 l 1
 196.625 0 l 1
 191 0 l 1
 191 5.625 l 1
 191 11.25 l 1
 191 637.5 l 1
 191 643.125 l 1
 191 648.75 l 1
308.375 531.375 m 1
 308.375 330 l 1
 409.25 330 l 2
 464.697 330 509.75 375.053 509.75 430.5 c 0
 509.75 486.343 464.697 531.375 409.25 531.375 c 2
 308.375 531.375 l 1
EndSplineSet
Validated: 524289
EndChar

StartChar: W
Encoding: 87 87 19
Width: 1070
VWidth: 0
Flags: W
HStem: 0 21G<366.719 371.688 476.312 481.281 579.25 584.312 688.938 693.906> 0 21G<366.719 371.688 476.312 481.281 579.25 584.312 688.938 693.906> 639 11.25<152.5 154.188 365.125 366.719 693.812 695.5 906.531 908.125>
LayerCount: 2
Fore
SplineSet
161.688 651.75 m 5xa0
 162.156 650.25 l 5
 263.688 650.25 l 5
 268.188 651.75 l 5
 268.75 650.25 l 5
 270.25 650.25 l 5
 270.25 645.844 l 5
 424 184.594 l 5
 471.344 325.875 l 5
 366.719 639 l 5
 365.125 639 l 5
 365.125 643.688 l 5
 363.625 648.188 l 5
 365.125 648.656 l 5
 365.125 650.25 l 5
 369.812 650.25 l 5
 374.312 651.75 l 5
 374.781 650.25 l 5
 476.312 650.25 l 5
 480.812 651.75 l 5
 481.281 650.25 l 5
 482.875 650.25 l 5
 482.875 645.562 l 5
 530.125 503.062 l 5
 577.75 645.844 l 5
 577.75 650.25 l 5
 579.25 650.25 l 5
 579.812 651.75 l 5
 584.312 650.25 l 5
 685.844 650.25 l 5
 686.312 651.75 l 5
 690.812 650.25 l 5
 695.5 650.25 l 5
 695.5 648.656 l 5
 697 648.188 l 5
 695.5 643.875 l 5
 695.5 639 l 5
 693.812 639 l 5
 589.375 325.875 l 5
 636.625 184.312 l 5
 790.375 645.562 l 5
 790.375 650.25 l 5
 791.969 650.25 l 5
 792.438 651.75 l 5
 796.938 650.25 l 5
 898.469 650.25 l 5
 898.938 651.75 l 5
 903.438 650.25 l 5
 908.125 650.25 l 5
 908.125 648.656 l 5
 909.625 648.188 l 5
 908.125 643.688 l 5
 908.125 639 l 5
 906.531 639 l 5
 695.5 6.46875 l 5
 695.5 1.5 l 5
 693.906 1.5 l 5
 693.438 0 l 5
 688.938 1.5 l 5
 584.312 1.5 l 5
 579.812 0 l 5
 579.25 1.5 l 5
 577.75 1.5 l 5
 577.75 5.90625 l 5
 530.125 148.688 l 5
 482.875 6.1875 l 5
 482.875 1.5 l 5
 481.281 1.5 l 5
 480.812 0 l 5
 476.312 1.5 l 5
 371.688 1.5 l 5
 367.188 0 l 5
 366.719 1.5 l 5
 365.125 1.5 l 5
 365.125 6.1875 l 5
 154.188 639 l 5
 152.5 639 l 5
 152.5 643.875 l 5
 151 648.188 l 5
 152.5 648.656 l 5
 152.5 650.25 l 5
 157.188 650.25 l 5
 161.688 651.75 l 5xa0
EndSplineSet
Validated: 524289
EndChar

StartChar: S
Encoding: 83 83 20
Width: 772
VWidth: 0
Flags: W
HStem: 0 117.375<225.25 395.875 395.875 449.138> 212.812 117.282<331.246 384.625> 318.656 117.656<395.875 449.145> 531.375 117.75<331.243 384.625 384.625 502>
VStem: 172 117.375<370.187 491.288> 490.75 117.75<157.683 278.721>
LayerCount: 2
Fore
SplineSet
384.625 649.125 m 1xdc
 390.25 649.125 l 1
 395.875 649.125 l 1
 496.375 649.125 l 1
 502 649.125 l 1
 502 643.5 l 1
 502 542.625 l 1
 502 531.375 l 1
 496.375 531.375 l 1
 395.875 531.375 l 1
 390.25 531.375 l 2
 334.407 531.375 289.375 486.322 289.375 430.875 c 0
 289.375 376.938 331.434 333.021 384.625 330.094 c 1xdc
 384.625 425.25 l 1
 384.625 430.875 l 1
 384.625 436.5 l 1
 390.25 436.5 l 1
 395.875 436.5 l 1
 395.875 436.312 l 1
 513.698 433.321 608.5 336.788 608.5 218.25 c 0
 608.5 99.7295 513.678 3.20215 395.875 0.1875 c 1
 395.875 0 l 1
 390.25 0 l 1
 236.5 0 l 1
 230.875 0 l 1
 225.25 0 l 1
 225.25 5.625 l 1
 225.25 106.125 l 1
 225.25 111.75 l 1
 225.25 117.375 l 1
 236.5 117.375 l 1
 384.625 117.375 l 1
 390.25 117.375 l 2
 445.697 117.375 490.75 162.407 490.75 218.25 c 0
 490.75 271.808 448.709 315.729 395.875 318.656 c 1xbc
 395.875 223.875 l 1
 395.875 212.625 l 1
 390.25 212.625 l 1
 384.625 212.625 l 1
 384.625 212.812 l 1
 266.474 215.795 172 311.991 172 430.875 c 0
 172 549.398 266.465 645.946 384.625 648.938 c 1
 384.625 649.125 l 1xdc
EndSplineSet
Validated: 524289
EndChar

StartChar: T
Encoding: 84 84 21
Width: 762
VWidth: 0
Flags: W
HStem: 0.75 21G<317.375 434.75> 0.75 21G<317.375 434.75> 532.125 117.75<158 317.375 434.75 594.5>
VStem: 317.375 117.375<0.75 532.125>
LayerCount: 2
Fore
SplineSet
158 649.875 m 1xb0
 169.25 649.875 l 1
 588.875 649.875 l 1
 594.5 649.875 l 1
 594.5 644.25 l 1
 594.5 543.375 l 1
 594.5 532.125 l 1
 588.875 532.125 l 1
 434.75 532.125 l 1
 434.75 12 l 1
 434.75 0.75 l 1
 429.125 0.75 l 1
 328.625 0.75 l 1
 323 0.75 l 1
 317.375 0.75 l 1
 317.375 6.375 l 1
 317.375 12 l 1
 317.375 532.125 l 1
 169.25 532.125 l 1
 158 532.125 l 1
 158 537.75 l 1
 158 543.375 l 1
 158 638.625 l 1
 158 644.25 l 1
 158 649.875 l 1xb0
EndSplineSet
Validated: 524289
EndChar

StartChar: U
Encoding: 85 85 22
Width: 868
VWidth: 0
Flags: W
HStem: 0 117.375<364.799 505.019> 629.125 20G<189 306.75 561 678.75> 629.125 20G<189 306.75 561 678.75>
VStem: 189 117.75<177.777 250.5 250.5 649.125> 561 117.75<176.891 236.25 236.25 649.125>
LayerCount: 2
Fore
SplineSet
189 649.125 m 1xd8
 194.625 649.125 l 1
 200.25 649.125 l 1
 301.125 649.125 l 1
 306.75 649.125 l 1
 306.75 643.5 l 1
 306.75 250.5 l 1
 306.75 244.875 l 2
 306.75 174.398 363.416 117.375 433.875 117.375 c 0
 503.941 117.375 561 174.416 561 244.875 c 2
 561 637.875 l 1
 561 643.5 l 1
 561 649.125 l 1
 566.625 649.125 l 1
 572.25 649.125 l 1
 673.125 649.125 l 1
 678.75 649.125 l 1
 678.75 643.5 l 1
 678.75 250.5 l 1
 678.75 244.875 l 1
 678.75 236.25 l 1
 678.562 236.25 l 1
 674.039 104.824 566.045 0 433.875 0 c 0
 298.84 0 189 109.462 189 244.875 c 2
 189 248.25 l 1
 189 250.5 l 1
 189 637.875 l 1
 189 643.5 l 1
 189 649.125 l 1xd8
EndSplineSet
Validated: 524289
EndChar

StartChar: V
Encoding: 86 86 23
Width: 857
VWidth: 0
Flags: W
HStem: 0.3125 21G<364.625 482.375> 0.3125 21G<364.625 482.375> 638.188 11.25<152 153.5 693.594 695>
LayerCount: 2
Fore
SplineSet
152 649.438 m 1xa0
 157.625 649.438 l 1
 264.125 649.438 l 1
 269.75 649.438 l 1
 269.75 644.75 l 1
 423.5 183.125 l 1
 577.25 644.469 l 1
 577.25 649.438 l 1
 582.875 649.438 l 1
 689.375 649.438 l 1
 695 649.438 l 1
 695 638.188 l 1
 693.594 638.188 l 1
 482.375 5 l 1
 482.375 0.3125 l 1
 476.75 0.3125 l 1
 370.25 0.3125 l 1
 364.625 0.3125 l 1
 364.625 5 l 1
 153.5 638.188 l 1
 152 638.188 l 1
 152 649.438 l 1xa0
EndSplineSet
Validated: 524289
EndChar

StartChar: X
Encoding: 88 88 24
Width: 776
VWidth: 0
Flags: W
HStem: 1 11.25<171 173.156 605.438 607.5> 638.875 11.25<171 173.062 605.344 607.5>
LayerCount: 2
Fore
SplineSet
171 650.125 m 1
 176.625 650.125 l 1
 283.125 650.125 l 1
 288.75 650.125 l 1
 288.75 645.906 l 1
 389.25 444.531 l 1
 489.75 645.906 l 1
 489.75 650.125 l 1
 495.375 650.125 l 1
 601.875 650.125 l 1
 607.5 650.125 l 1
 607.5 638.875 l 1
 605.344 638.875 l 1
 448.781 325.469 l 1
 605.438 12.25 l 1
 607.5 12.25 l 1
 607.5 1 l 1
 601.875 1 l 1
 495.375 1 l 1
 489.75 1 l 1
 489.75 5.21875 l 1
 389.25 206.594 l 1
 288.75 5.21875 l 1
 288.75 1 l 1
 283.125 1 l 1
 176.625 1 l 1
 171 1 l 1
 171 12.25 l 1
 173.156 12.25 l 1
 329.719 325.375 l 1
 173.062 638.875 l 1
 171 638.875 l 1
 171 650.125 l 1
EndSplineSet
Validated: 524289
EndChar

StartChar: Y
Encoding: 89 89 25
Width: 739
VWidth: 0
Flags: W
HStem: 0 21G<305.375 422.75> 0 21G<305.375 422.75> 637.875 11.25<146 148.156 580.062 582.125>
VStem: 305.375 117.375<0 322.969>
LayerCount: 2
Fore
SplineSet
146 649.125 m 1xb0
 151.625 649.125 l 1
 257.75 649.125 l 1
 263.375 649.125 l 1
 263.375 644.906 l 1
 364.25 443.531 l 1
 453.219 621.656 l 1
 464.75 644.719 l 1
 464.75 649.125 l 1
 470.375 649.125 l 1
 576.5 649.125 l 1
 582.125 649.125 l 1
 582.125 637.875 l 1
 580.062 637.875 l 1
 422.75 322.969 l 1
 422.75 11.25 l 1
 422.75 0 l 1
 417.125 0 l 1
 316.625 0 l 1
 311 0 l 1
 305.375 0 l 1
 305.375 5.625 l 1
 305.375 11.25 l 1
 305.375 323.156 l 1
 148.156 637.875 l 1
 146 637.875 l 1
 146 649.125 l 1xb0
EndSplineSet
Validated: 524289
EndChar

StartChar: Z
Encoding: 90 90 26
Width: 792
VWidth: 0
Flags: W
HStem: 0 11.25<177 179.156> 0 117.375<351.375 613.5> 531.375 117.75<177 439.406> 637.875 11.25<611.438 613.5>
LayerCount: 2
Fore
SplineSet
177 649.125 m 5x20
 188.25 649.125 l 5x20
 607.875 649.125 l 5
 613.5 649.125 l 5
 613.5 637.875 l 5
 611.438 637.875 l 5
 351.375 117.375 l 5
 607.875 117.375 l 5
 613.5 117.375 l 5x50
 613.5 111.75 l 5
 613.5 11.25 l 5x80
 613.5 0 l 5
 607.875 0 l 5
 182.625 0 l 5x40
 177 0 l 5
 177 11.25 l 5
 179.156 11.25 l 5
 439.406 531.375 l 5
 188.25 531.375 l 5
 177 531.375 l 5xa0
 177 537 l 5
 177 542.625 l 5
 177 637.875 l 5x10
 177 643.5 l 5
 177 649.125 l 5x20
EndSplineSet
Validated: 524289
EndChar

StartChar: one
Encoding: 49 49 27
Width: 574
VWidth: 0
Flags: W
HStem: 0 21G<264.125 381.875> 0 21G<264.125 381.875> 478.125 11.25<158 160.625> 628.75 20G<264.125 381.875> 628.75 20G<264.125 381.875>
VStem: 264.125 117.75<0 478.125 644.812 648.75>
LayerCount: 2
Fore
SplineSet
264.125 648.75 m 5xb4
 275.375 648.75 l 5
 370.625 648.75 l 5
 376.25 648.75 l 5
 381.875 648.75 l 5
 381.875 643.125 l 5
 381.875 637.5 l 5
 381.875 11.25 l 5
 381.875 0 l 5
 376.25 0 l 5
 275.375 0 l 5
 264.125 0 l 5
 264.125 5.625 l 5
 264.125 478.125 l 5
 163.625 478.125 l 5
 158 478.125 l 5
 158 489.375 l 5
 160.625 489.375 l 5
 264.125 644.812 l 5
 264.125 648.75 l 5xb4
EndSplineSet
Validated: 524289
EndChar

StartChar: two
Encoding: 50 50 28
Width: 731
VWidth: 0
Flags: W
HStem: 0 11.25<163.5 165> 0 117.375<318.562 546.75> 531.375 117.375<216.375 334.125 334.125 387.391>
VStem: 429 117.75<369.004 491.135>
LayerCount: 2
Fore
SplineSet
216.375 648.75 m 1xb0
 222 648.75 l 1
 227.625 648.75 l 1
 328.5 648.75 l 1
 334.125 648.75 l 1
 334.125 648.562 l 1
 451.938 645.58 546.75 549.396 546.75 430.5 c 0
 546.75 317.607 460.77 224.895 350.812 213.75 c 1
 318.562 117.375 l 1
 541.125 117.375 l 1
 546.75 117.375 l 1x70
 546.75 111.75 l 1
 546.75 11.25 l 1xb0
 546.75 0 l 1
 541.125 0 l 1
 279.281 0 l 1
 278.812 -1.5 l 1
 274.312 0 l 1
 173.25 0 l 1
 172.688 -1.5 l 1
 168.188 0 l 1x70
 163.5 0 l 1
 163.5 1.59375 l 1
 162 2.0625 l 1
 163.5 6.84375 l 1
 163.5 11.25 l 1
 165 11.25 l 1
 269.625 325.312 l 1
 269.625 330 l 1
 271.219 330 l 1
 271.688 331.5 l 1
 276.188 330 l 1
 322.875 330 l 1
 328.5 330 l 2
 383.947 330 429 375.053 429 430.5 c 0
 429 486.343 383.947 531.375 328.5 531.375 c 2
 322.875 531.375 l 1
 227.625 531.375 l 1
 222 531.375 l 1
 216.375 531.375 l 1
 216.375 537 l 1
 216.375 637.5 l 1
 216.375 643.125 l 1
 216.375 648.75 l 1xb0
EndSplineSet
Validated: 524289
EndChar

StartChar: three
Encoding: 51 51 29
Width: 771
VWidth: 0
Flags: W
HStem: 0 117.375<225.875 396.5 396.5 449.878> 318.75 117.375<225.875 377.826> 531.375 117.375<173 343.625 343.625 375.805>
VStem: 385.25 117.75<443.839 522.069> 491.75 117.375<157.617 280.14>
LayerCount: 2
Fore
SplineSet
173 648.75 m 5xf0
 178.625 648.75 l 5
 184.25 648.75 l 5
 338 648.75 l 5
 343.625 648.75 l 5
 343.625 648.656 l 5
 431.855 645.7 503 573.044 503 483.75 c 4xf0
 503 458.689 497.36 434.985 487.344 413.719 c 5
 559.525 378.202 609.125 304.078 609.125 218.25 c 4
 609.125 99.3633 514.648 3.16406 396.5 0.1875 c 5
 396.5 0 l 5
 390.875 0 l 5
 338 0 l 5
 237.125 0 l 5
 231.5 0 l 5
 225.875 0 l 5
 225.875 5.625 l 5
 225.875 106.125 l 5
 225.875 111.75 l 5
 225.875 117.375 l 5
 231.5 117.375 l 5
 237.125 117.375 l 5
 279.125 117.375 l 5
 338 117.375 l 5
 343.625 117.375 l 5
 390.875 117.375 l 6
 446.718 117.375 491.75 162.41 491.75 218.25 c 4xe8
 491.75 273.697 446.718 318.75 390.875 318.75 c 6
 259.25 318.75 l 5
 385.25 325.781 l 5
 371.973 321.803 358.051 319.421 343.625 318.938 c 5
 343.625 318.75 l 5
 338 318.75 l 5
 237.125 318.75 l 5
 231.5 318.75 l 5
 225.875 318.75 l 5
 225.875 324.375 l 5
 225.875 424.875 l 5
 225.875 430.5 l 5
 225.875 436.125 l 5
 231.5 436.125 l 5
 237.125 436.125 l 5
 338 436.125 l 6
 364.174 436.125 385.25 457.529 385.25 483.75 c 4
 385.25 509.971 364.174 531.375 338 531.375 c 6
 284.75 531.375 l 5
 184.25 531.375 l 5
 178.625 531.375 l 5
 173 531.375 l 5
 173 537 l 5
 173 637.5 l 5
 173 643.125 l 5
 173 648.75 l 5xf0
EndSplineSet
Validated: 524293
EndChar

StartChar: four
Encoding: 52 52 30
Width: 768
VWidth: 0
Flags: W
HStem: 0 21G<431.625 549> 0 21G<431.625 549> 212.625 117.375<297.375 431.625 549 602.25> 629.406 20G<219.656 225 325.781 331.125> 629.406 20G<219.656 225 325.781 331.125>
VStem: 431.625 117.375<0 212.625 330 489.375>
LayerCount: 2
Fore
SplineSet
219.75 649.406 m 1xb4
 225 648.75 l 1
 325.781 648.75 l 1
 325.875 649.406 l 1
 331.125 648.75 l 1
 336.375 648.75 l 1
 336.375 648.094 l 1
 337.031 648 l 1
 336.375 643.031 l 1
 336.375 637.5 l 1
 335.719 637.5 l 1
 297.375 330 l 1
 431.625 330 l 1
 431.625 478.125 l 1
 431.625 483.75 l 1
 431.625 489.375 l 1
 437.25 489.375 l 1
 442.875 489.375 l 1
 543.375 489.375 l 1
 549 489.375 l 1
 549 483.75 l 1
 549 330 l 1
 596.625 330 l 1
 602.25 330 l 1
 602.25 324.375 l 1
 602.25 223.875 l 1
 602.25 212.625 l 1
 596.625 212.625 l 1
 549 212.625 l 1
 549 11.25 l 1
 549 0 l 1
 543.375 0 l 1
 537.75 0 l 1
 442.875 0 l 1
 437.25 0 l 1
 431.625 0 l 1
 431.625 5.625 l 1
 431.625 212.625 l 1
 171.375 212.625 l 1
 165.75 212.625 l 1
 165.75 223.875 l 1
 166.406 223.875 l 1
 219 643.781 l 1
 219 648.75 l 1
 219.656 648.75 l 1
 219.75 649.406 l 1xb4
EndSplineSet
Validated: 524289
EndChar

StartChar: five
Encoding: 53 53 31
Width: 774
VWidth: 0
Flags: W
HStem: -0.0175781 117.375<217.375 388 388 441.267> 318.732 117.375<334.75 388 388 441.267> 531.357 117.375<334.75 547.375>
VStem: 217.375 117.375<436.107 531.357> 482.875 117.75<157.594 278.578>
LayerCount: 2
Fore
SplineSet
175.375 329.982 m 5
 175.375 324.357 l 5
 175.375 223.857 l 5
 175.375 212.607 l 5
217.375 648.732 m 5
 223 648.732 l 5
 228.625 648.732 l 5
 541.75 648.732 l 5
 547.375 648.732 l 5
 547.375 643.107 l 5
 547.375 542.607 l 5
 547.375 531.357 l 5
 541.75 531.357 l 5
 334.75 531.357 l 5
 334.75 436.107 l 5
 382.375 436.107 l 5
 388 436.107 l 5
 388 436.014 l 5
 505.814 433.034 600.625 336.768 600.625 218.232 c 4
 600.625 99.334 505.814 3.05566 388 0.0761719 c 5
 388 -0.0175781 l 5
 382.375 -0.0175781 l 5
 228.625 -0.0175781 l 5
 223 -0.0175781 l 5
 217.375 -0.0175781 l 5
 217.375 5.60742 l 5
 217.375 106.107 l 5
 217.375 111.732 l 5
 217.375 117.357 l 5
 228.625 117.357 l 5
 376.75 117.357 l 5
 382.375 117.357 l 6
 437.822 117.357 482.875 162.39 482.875 218.232 c 4
 482.875 273.551 438.024 318.527 382.75 318.732 c 6
 376.75 318.732 l 5
 329.125 318.732 l 5
 228.625 318.732 l 5
 217.375 318.732 l 5
 217.375 324.357 l 5
 217.375 637.482 l 5
 217.375 643.107 l 5
 217.375 648.732 l 5
EndSplineSet
Validated: 524291
EndChar

StartChar: six
Encoding: 54 54 32
Width: 819
VWidth: 0
Flags: W
HStem: 1.375 106.125<324.256 382.594 382.594 382.594 382.594 446.719 446.719 446.719 446.719 505.182> 318.25 11.25<168 171.094> 331.375 106.125<343.355 382.594 382.594 382.594 382.594 446.719 446.719 446.719 446.719 505.182> 638.875 11.25<444.656 446.719>
VStem: 169.969 106.125<154.94 284.803> 553.219 106.125<154.926 284.099>
LayerCount: 2
Fore
SplineSet
382.594 331.375 m 5
 382.594 331.281 l 5
 323.32 328.322 276.094 279.285 276.094 219.625 c 4
 276.094 159.619 323.32 110.553 382.594 107.594 c 5
 382.594 107.5 l 5
 388.219 107.5 l 5
 435.469 107.5 l 5
 441.094 107.5 l 5
 446.719 107.5 l 5
 446.719 107.594 l 5
 506.036 110.506 553.219 159.59 553.219 219.625 c 4
 553.219 279.317 506.036 328.369 446.719 331.281 c 5
 446.719 331.375 l 5
 441.094 331.375 l 5
 435.469 331.375 l 5
 388.219 331.375 l 5
 382.594 331.375 l 5
332.438 652 m 5
 336.281 650.125 l 5
 437.531 650.125 l 5
 438.469 652 l 5
 442.312 650.125 l 5
 446.719 650.125 l 5
 446.719 647.969 l 5
 448.594 647.031 l 5
 446.719 643.094 l 5
 446.719 638.875 l 5
 444.656 638.875 l 5
 341.438 432.438 l 5
 354.735 435.338 368.52 436.955 382.594 437.312 c 5
 382.594 437.5 l 5
 388.219 437.5 l 5
 441.094 437.5 l 5
 446.719 437.5 l 5
 446.719 437.312 l 5
 564.867 434.333 659.344 338.148 659.344 219.625 c 4
 659.344 100.741 564.867 4.54199 446.719 1.5625 c 5
 446.719 1.375 l 5
 441.094 1.375 l 5
 388.219 1.375 l 5
 382.594 1.375 l 5
 382.594 1.5625 l 5
 264.8 4.56543 169.969 100.744 169.969 219.625 c 4
 169.969 255.15 178.485 288.637 193.594 318.25 c 5
 178.125 318.25 l 5
 178.125 318.156 l 5
 177.938 318.25 l 5
 173.625 318.25 l 5
 168 318.25 l 5
 168 329.5 l 5
 171.094 329.5 l 5
 329.344 645.906 l 5
 329.344 650.125 l 5
 331.5 650.125 l 5
 332.438 652 l 5
EndSplineSet
Validated: 524289
EndChar

StartChar: seven
Encoding: 55 55 33
Width: 713
VWidth: 0
Flags: W
HStem: 0.9375 11.25<268.5 269.812> 532.312 117.375<162 399.75> 638.438 11.25<543.938 545.25>
LayerCount: 2
Fore
SplineSet
162 649.688 m 1xc0
 173.25 649.688 l 1xc0
 433.5 649.688 l 1
 539.625 649.688 l 1
 545.25 649.688 l 1
 545.25 638.438 l 1
 543.938 638.438 l 1xa0
 385.875 6 l 1
 385.875 0.9375 l 1
 384.656 0.9375 l 1
 384.375 -0.28125 l 1
 379.594 0.9375 l 1
 278.531 0.9375 l 1
 278.25 -0.28125 l 1
 273.469 0.9375 l 1
 268.5 0.9375 l 1
 268.5 2.25 l 1
 267.281 2.53125 l 1
 268.5 7.125 l 1
 268.5 12.1875 l 1
 269.812 12.1875 l 1
 399.75 532.312 l 1
 173.25 532.312 l 1
 162 532.312 l 1xc0
 162 537.938 l 1
 162 638.438 l 1xa0
 162 644.062 l 1
 162 649.688 l 1xc0
EndSplineSet
Validated: 524289
EndChar

StartChar: eight
Encoding: 56 56 34
Width: 849
VWidth: 0
Flags: W
HStem: 0 117.375<338.359 391.625 391.625 397.25 450.5 456.125 456.125 509.384> 318.75 117.375<338.359 391.625 391.625 397.25 450.5 456.125 456.125 509.384> 531.375 117.375<339.178 391.625 391.625 397.25 450.5 456.125 456.125 508.566>
VStem: 179 117.375<157.615 278.651 430.5 436.125 436.125 488.686> 551 117.75<157.619 278.647 430.5 436.125 436.125 488.68>
LayerCount: 2
Fore
SplineSet
397.25 542.625 m 5
 397.25 531.375 l 5
 450.5 531.375 l 5
 450.5 542.625 l 5
 397.25 542.625 l 5
450.5 531.375 m 5
 450.5 542.625 l 5
 397.25 542.625 l 5
 397.25 531.375 l 5
 450.5 531.375 l 5
179 424.875 m 5
 190.25 424.875 l 5
 285.125 424.875 l 5
 290.75 424.875 l 5
 296.375 424.875 l 5
 296.375 430.5 l 6
 296.375 486.34 341.407 531.375 397.25 531.375 c 6
 402.875 531.375 l 5
 450.5 531.375 l 6
 505.947 531.375 551 486.34 551 430.5 c 6
 551 424.875 l 5
 556.625 424.875 l 5
 562.25 424.875 l 5
 657.5 424.875 l 5
 663.125 424.875 l 5
 668.75 424.875 l 5
 668.75 430.5 l 5
 668.75 436.125 l 5
 668.562 436.125 l 5
 665.615 552.39 572.047 645.606 456.125 648.562 c 5
 456.125 648.75 l 5
 450.5 648.75 l 5
 397.25 648.75 l 5
 391.625 648.75 l 5
 391.625 648.562 l 5
 275.686 645.63 182.135 552.404 179.188 436.125 c 5
 179 436.125 l 5
 179 430.5 l 5
 179 424.875 l 5
397.25 117.375 m 6
 341.407 117.375 296.375 162.407 296.375 218.25 c 4
 296.375 273.697 341.407 318.75 397.25 318.75 c 6
 402.875 318.75 l 5
 450.5 318.75 l 6
 505.947 318.75 551 273.697 551 218.25 c 4
 551 162.407 505.947 117.375 450.5 117.375 c 6
 402.875 117.375 l 5
 397.25 117.375 l 6
391.625 0 m 5
 397.25 0 l 5
 402.875 0 l 5
 444.875 0 l 5
 450.5 0 l 5
 456.125 0 l 5
 456.125 0.1875 l 5
 573.916 3.19629 668.75 99.3691 668.75 218.25 c 4
 668.75 336.771 573.916 432.932 456.125 435.938 c 5
 456.125 436.125 l 5
 450.5 436.125 l 5
 397.25 436.125 l 5
 391.625 436.125 l 5
 391.625 435.938 l 5
 273.812 432.958 179 336.785 179 218.25 c 4
 179 99.3545 273.812 3.16992 391.625 0.1875 c 5
 391.625 0 l 5
EndSplineSet
Validated: 524293
EndChar

StartChar: o
Encoding: 111 111 35
Width: 985
VWidth: 0
Flags: W
HStem: 0 117.375<401.438 580.049> 531.375 117.375<401.438 580.049>
VStem: 166 117.75<235.075 413.674> 697.75 117.375<235.076 413.673>
LayerCount: 2
Fore
SplineSet
490.75 531.375 m 0
 376.419 531.375 283.75 438.706 283.75 324.375 c 0
 283.75 210.041 376.419 117.375 490.75 117.375 c 0
 605.084 117.375 697.75 210.041 697.75 324.375 c 0
 697.75 438.706 605.084 531.375 490.75 531.375 c 0
490.75 648.75 m 0
 670.032 648.75 815.125 503.657 815.125 324.375 c 0
 815.125 145.093 670.032 0 490.75 0 c 0
 311.471 0 166 145.084 166 324.375 c 0
 166 503.663 311.471 648.75 490.75 648.75 c 0
EndSplineSet
Validated: 524289
EndChar

StartChar: nine
Encoding: 57 57 36
Width: 832
VWidth: 0
Flags: W
HStem: 0 11.25<376.625 378.781> 212.625 106.125<318.281 376.625 376.625 376.625 376.625 441.125 441.125 441.125 441.125 480.176> 321 11.25<652.625 656.188> 542.625 106.125<318.281 376.625 376.625 376.625 376.625 441.125>
VStem: 164 106.5<366.04 495.185> 547.25 108.938<365.468 495.172>
LayerCount: 2
Fore
SplineSet
376.625 648.75 m 1
 382.25 648.75 l 1
 435.5 648.75 l 1
 441.125 648.75 l 1
 441.125 648.562 l 1
 558.938 645.58 653.75 549.396 653.75 430.5 c 0
 653.75 395.133 645.28 361.767 630.312 332.25 c 1
 650.562 332.25 l 1
 656.188 332.25 l 1
 656.188 321 l 1
 652.625 321 l 1
 494.375 4.40625 l 1
 494.375 0 l 1
 492.219 0 l 1
 491.281 -1.96875 l 1
 487.344 0 l 1
 385.719 0 l 1
 384.781 -1.96875 l 1
 380.844 0 l 1
 376.625 0 l 1
 376.625 2.15625 l 1
 374.75 3.09375 l 1
 376.625 7.03125 l 1
 376.625 11.25 l 1
 378.781 11.25 l 1
 482.188 217.688 l 1
 468.913 214.799 455.176 213.167 441.125 212.812 c 1
 441.125 212.625 l 1
 435.5 212.625 l 1
 382.25 212.625 l 1
 376.625 212.625 l 1
 376.625 212.812 l 1
 258.812 215.792 164 311.965 164 430.5 c 0
 164 549.396 258.812 645.58 376.625 648.562 c 1
 376.625 648.75 l 1
376.625 542.625 m 1
 376.625 542.438 l 1
 317.639 539.525 270.5 490.535 270.5 430.5 c 0
 270.5 370.808 317.639 321.844 376.625 318.938 c 1
 376.625 318.75 l 1
 382.25 318.75 l 1
 387.875 318.75 l 1
 435.5 318.75 l 1
 441.125 318.75 l 1
 441.125 318.938 l 1
 500.07 321.888 547.25 370.84 547.25 430.5 c 0
 547.25 490.506 500.07 539.479 441.125 542.438 c 1
 441.125 542.625 l 1
 435.5 542.625 l 1
 387.875 542.625 l 1
 382.25 542.625 l 1
 376.625 542.625 l 1
EndSplineSet
Validated: 524289
EndChar

StartChar: a
Encoding: 97 97 37
Width: 829
VWidth: 0
Flags: W
HStem: -1.5625 11.25<141.5 143 682.531 684.125> 157.812 117.376<349.812 476.094> 629.062 20G<355.719 360.688 464.938 470> 629.062 20G<355.719 360.688 464.938 470>
LayerCount: 2
Fore
SplineSet
412.906 464.562 m 1xc0
 349.812 275.188 l 1
 359.75 275.188 l 1
 465.875 275.188 l 1
 476.094 275.188 l 1
 412.906 464.562 l 1xc0
356.188 649.062 m 1xe0
 360.688 647.562 l 1
 464.938 647.562 l 1
 469.438 649.062 l 1
 470 647.562 l 1
 471.5 647.562 l 1
 471.5 643.156 l 1
 682.531 9.6875 l 1
 684.125 9.6875 l 1
 684.125 5 l 1
 685.625 0.40625 l 1
 684.125 -0.0625 l 1
 684.125 -1.5625 l 1
 679.531 -1.5625 l 1
 674.938 -3.0625 l 1
 674.469 -1.5625 l 1
 573.312 -1.5625 l 1
 568.812 -3.0625 l 1
 568.344 -1.5625 l 1
 566.75 -1.5625 l 1
 566.75 3.21875 l 1
 515.188 157.812 l 1
 310.719 157.812 l 1
 259.25 3.5 l 1
 259.25 -1.5625 l 1
 257.656 -1.5625 l 1
 257.188 -3.0625 l 1
 252.688 -1.5625 l 1
 151.25 -1.5625 l 1
 150.688 -3.0625 l 1
 146.188 -1.5625 l 1
 141.5 -1.5625 l 1
 141.5 0.03125 l 1
 140 0.5 l 1
 141.5 5.28125 l 1
 141.5 9.6875 l 1
 143 9.6875 l 1
 354.125 642.875 l 1
 354.125 647.562 l 1
 355.719 647.562 l 1
 356.188 649.062 l 1xe0
EndSplineSet
Validated: 524289
EndChar

StartChar: b
Encoding: 98 98 38
Width: 788
VWidth: 0
Flags: W
HStem: 1.4375 117.374<308.75 414.875 414.875 468.138> 214.25 117.375<308.75 365.718> 532.625 117.75<308.75 361.991>
VStem: 191 117.75<118.812 214.25 331.625 532.625 650.375 650.562> 403.625 117.375<401.266 492.776> 509.75 117.75<159.121 281.638>
LayerCount: 2
Fore
SplineSet
191 650.562 m 5xf4
 196.625 650.562 l 5
 202.25 650.562 l 5
 303.125 650.562 l 5
 308.75 650.562 l 5
 308.75 650.375 l 5
 426.562 647.384 521 550.836 521 432.312 c 4xf8
 521 424.054 520.48 415.956 519.594 407.938 c 5
 584.141 369.975 627.5 299.861 627.5 219.688 c 4
 627.5 101.167 532.678 4.63965 414.875 1.625 c 5
 414.875 1.4375 l 5
 409.25 1.4375 l 5
 308.75 1.4375 l 5
 303.125 1.4375 l 5
 202.25 1.4375 l 5
 196.625 1.4375 l 5
 191 1.4375 l 5
 191 7.0625 l 5
 191 12.6875 l 5
 191 639.312 l 5
 191 644.938 l 5
 191 650.562 l 5xf4
308.75 532.625 m 5
 308.75 331.625 l 5
 361.619 334.511 403.625 378.345 403.625 432.312 c 4
 403.625 485.899 361.619 529.745 308.75 532.625 c 5
473.844 296.656 m 5
 435.037 247.672 375.673 215.946 308.75 214.25 c 5
 308.75 118.812 l 5
 409.25 118.812 l 6
 464.697 118.812 509.75 163.845 509.75 219.688 c 4xf4
 509.75 250.566 495.816 278.199 473.844 296.656 c 5
EndSplineSet
Validated: 524289
EndChar

StartChar: c
Encoding: 99 99 39
Width: 786
VWidth: 0
Flags: W
HStem: 0 117.375<405.225 485.125 485.125 602.5> 531.375 117.75<405.225 485.125 485.125 602.5>
VStem: 166 117.75<235.589 413.241>
LayerCount: 2
Fore
SplineSet
485.125 649.125 m 5
 490.75 649.125 l 5
 496.375 649.125 l 5
 596.875 649.125 l 5
 602.5 649.125 l 5
 602.5 643.5 l 5
 602.5 542.625 l 5
 602.5 531.375 l 5
 596.875 531.375 l 5
 490.75 531.375 l 6
 376.419 531.375 283.75 438.706 283.75 324.375 c 4
 283.75 210.044 376.419 117.375 490.75 117.375 c 6
 596.875 117.375 l 5
 602.5 117.375 l 5
 602.5 111.75 l 5
 602.5 11.25 l 5
 602.5 0 l 5
 596.875 0 l 5
 496.375 0 l 5
 490.75 0 l 5
 485.125 0 l 5
 485.125 0.09375 l 5
 308.441 3.11426 166 147.34 166 324.375 c 4
 166 501.776 308.441 646.011 485.125 649.031 c 5
 485.125 649.125 l 5
EndSplineSet
Validated: 524289
EndChar

StartChar: d
Encoding: 100 100 40
Width: 798
VWidth: 0
Flags: W
HStem: 0.09375 117.375<308.75 391.836> 531.188 117.844<308.75 391.836>
VStem: 191 117.75<0 0.09375 117.469 531.188 649.031 649.125> 510.125 117.375<234.048 414.771>
LayerCount: 2
Fore
SplineSet
308.75 531.188 m 1
 308.75 117.469 l 1
 420.462 120.475 510.125 211.939 510.125 324.375 c 0
 510.125 436.811 420.462 528.185 308.75 531.188 c 1
191 649.125 m 1
 202.25 649.125 l 1
 297.5 649.125 l 1
 303.125 649.125 l 1
 308.75 649.125 l 1
 308.75 649.031 l 1
 485.079 646.011 627.5 501.776 627.5 324.375 c 0
 627.5 147.34 485.079 3.11426 308.75 0.09375 c 1
 308.75 0 l 1
 303.125 0 l 1
 245 0 l 1
 202.25 0 l 1
 196.625 0 l 1
 191 0 l 1
 191 5.625 l 1
 191 637.875 l 1
 191 643.5 l 1
 191 649.125 l 1
EndSplineSet
Validated: 524289
EndChar

StartChar: e
Encoding: 101 101 41
Width: 704
VWidth: 0
Flags: W
HStem: 0 117.375<308.375 521> 265.5 117.75<308.375 467.75> 531.375 117.75<308.375 521>
VStem: 191 117.375<117.375 265.5 383.25 531.375> 191 330<0 117.375 531.375 649.125>
LayerCount: 2
Fore
SplineSet
191 649.125 m 5xe8
 196.625 649.125 l 5
 202.25 649.125 l 5
 302.75 649.125 l 5
 308.375 649.125 l 5xf0
 515.375 649.125 l 5
 521 649.125 l 5
 521 643.5 l 5
 521 542.625 l 5
 521 531.375 l 5xe8
 515.375 531.375 l 5
 308.375 531.375 l 5
 308.375 383.25 l 5
 462.125 383.25 l 5
 467.75 383.25 l 5
 467.75 377.625 l 5
 467.75 276.75 l 5
 467.75 265.5 l 5
 462.125 265.5 l 5
 308.375 265.5 l 5
 308.375 117.375 l 5xf0
 515.375 117.375 l 5
 521 117.375 l 5
 521 111.75 l 5
 521 11.25 l 5
 521 0 l 5
 515.375 0 l 5
 302.75 0 l 5
 202.25 0 l 5
 196.625 0 l 5
 191 0 l 5
 191 5.625 l 5
 191 11.25 l 5
 191 637.875 l 5
 191 643.5 l 5
 191 649.125 l 5xe8
EndSplineSet
Validated: 524289
EndChar

StartChar: f
Encoding: 102 102 42
Width: 702
VWidth: 0
Flags: W
HStem: 0 21G<191 308.375> 0 21G<191 308.375> 265.5 117.75<308.375 521> 531.375 117.75<308.375 521>
VStem: 191 117.375<0 265.5 383.25 531.375> 191 330<265.5 383.25 531.375 649.125>
LayerCount: 2
Fore
SplineSet
149 218.25 m 0,0,-1
191 649.125 m 1,1,-1
 196.625 649.125 l 1,2,-1
 202.25 649.125 l 1,3,-1
 302.75 649.125 l 1,4,-1
 308.375 649.125 l 1,5,-1
 515.375 649.125 l 1,6,-1
 521 649.125 l 1,7,-1
 521 643.5 l 1,8,-1
 521 542.625 l 1,9,-1
 521 531.375 l 1,10,-1
 515.375 531.375 l 1,11,-1
 308.375 531.375 l 1,12,-1
 308.375 383.25 l 1,13,-1
 515.375 383.25 l 1,14,-1
 521 383.25 l 1,15,-1
 521 377.625 l 1,16,-1
 521 276.75 l 1,17,-1
 521 265.5 l 1,18,-1
 515.375 265.5 l 1,19,-1
 308.375 265.5 l 1,20,-1
 308.375 11.25 l 1,21,-1
 308.375 0 l 1,22,-1
 302.75 0 l 1,23,-1
 202.25 0 l 1,24,-1
 196.625 0 l 1,25,-1
 191 0 l 1,26,-1
 191 5.625 l 1,27,-1
 191 11.25 l 1,28,-1
 191 637.875 l 1,29,-1
 191 643.5 l 1,30,-1
 191 649.125 l 1,1,-1
EndSplineSet
Validated: 524289
EndChar

StartChar: g
Encoding: 103 103 43
Width: 794
VWidth: 0
Flags: W
HStem: 0.46875 117.47<404.934 484.75> 531.75 117.75<405.225 485.125 485.125 602.5>
VStem: 166 117.75<234.502 413.616> 484.75 117.75<0.375 0.46875 117.938 269.625 649.406 649.5>
LayerCount: 2
Fore
SplineSet
485.125 649.5 m 1
 490.75 649.5 l 1
 496.375 649.5 l 1
 596.875 649.5 l 1
 602.5 649.5 l 1
 602.5 643.875 l 1
 602.5 543 l 1
 602.5 531.75 l 1
 596.875 531.75 l 1
 490.75 531.75 l 2
 376.419 531.75 283.75 439.081 283.75 324.75 c 0
 283.75 212.423 373.193 121.11 484.75 117.938 c 1
 484.75 264.938 l 1
 484.75 267.281 l 1
 484.75 269.625 l 1
 490.375 269.625 l 1
 496 269.625 l 1
 596.875 269.625 l 1
 602.5 269.625 l 1
 602.5 267.281 l 1
 602.5 117.75 l 1
 602.5 112.125 l 1
 602.5 11.625 l 1
 602.5 0.375 l 1
 596.875 0.375 l 1
 496.375 0.375 l 1
 496 0.375 l 1
 490.75 0.375 l 1
 490.375 0.375 l 1
 485.125 0.375 l 1
 484.75 0.375 l 1
 484.75 0.46875 l 1
 308.242 3.68555 166 147.838 166 324.75 c 0
 166 502.151 308.441 646.386 485.125 649.406 c 1
 485.125 649.5 l 1
EndSplineSet
Validated: 524289
EndChar

StartChar: h
Encoding: 104 104 44
Width: 820
VWidth: 0
Flags: W
HStem: 0 21G<191 308.375 509.75 627.5> 0 21G<191 308.375 509.75 627.5> 265.5 117.75<308.375 509.75> 629.125 20G<191 308.375 509.75 627.5> 629.125 20G<191 308.375 509.75 627.5>
VStem: 191 117.375<0 265.5 383.25 649.125> 509.75 117.75<0 265.5 383.25 649.125>
LayerCount: 2
Fore
SplineSet
191 649.125 m 5xb6
 196.625 649.125 l 5
 202.25 649.125 l 5
 302.75 649.125 l 5
 308.375 649.125 l 5
 308.375 643.5 l 5
 308.375 383.25 l 5
 509.75 383.25 l 5
 509.75 637.875 l 5
 509.75 643.5 l 5
 509.75 649.125 l 5
 515.375 649.125 l 5
 521 649.125 l 5
 621.875 649.125 l 5
 627.5 649.125 l 5
 627.5 643.5 l 5
 627.5 11.25 l 5
 627.5 0 l 5
 621.875 0 l 5
 521 0 l 5
 515.375 0 l 5
 509.75 0 l 5
 509.75 5.625 l 5
 509.75 265.5 l 5
 308.375 265.5 l 5
 308.375 11.25 l 5
 308.375 0 l 5
 302.75 0 l 5
 202.25 0 l 5
 196.625 0 l 5
 191 0 l 5
 191 5.625 l 5
 191 11.25 l 5
 191 637.875 l 5
 191 643.5 l 5
 191 649.125 l 5xb6
EndSplineSet
Validated: 524289
EndChar

StartChar: i
Encoding: 105 105 45
Width: 501
VWidth: 0
Flags: W
HStem: 1 21G<191 308.75> 1 21G<191 308.75> 629.75 20G<191 308.75> 629.75 20G<191 308.75>
VStem: 191 117.75<1 649.75>
LayerCount: 2
Fore
SplineSet
191 649.75 m 1xa8
 196.625 649.75 l 1
 202.25 649.75 l 1
 303.125 649.75 l 1
 308.75 649.75 l 1
 308.75 644.125 l 1
 308.75 12.25 l 1
 308.75 1 l 1
 303.125 1 l 1
 202.25 1 l 1
 196.625 1 l 1
 191 1 l 1
 191 6.625 l 1
 191 12.25 l 1
 191 638.5 l 1
 191 644.125 l 1
 191 649.75 l 1xa8
EndSplineSet
Validated: 524289
EndChar

StartChar: j
Encoding: 106 106 46
Width: 681
VWidth: 0
Flags: W
HStem: -52 117.375<286.816 363.311> 630 20G<372.438 490.188> 630 20G<372.438 490.188>
VStem: 159.812 117.75<75.0975 107.375 107.375 224.75> 372.438 117.75<75.0975 107.375 107.375 650>
LayerCount: 2
Fore
SplineSet
372.438 650 m 5xd8
 378.062 650 l 5
 383.688 650 l 5
 484.562 650 l 5
 490.188 650 l 5
 490.188 644.375 l 5
 490.188 118.625 l 5
 490.188 113 l 5
 490.188 107.375 l 5
 490.094 107.375 l 5
 487.123 18.8047 414.112 -52 325.188 -52 c 4
 235.908 -52 162.877 18.8047 159.906 107.375 c 5
 159.812 107.375 l 5
 159.812 113 l 5
 159.812 118.625 l 5
 159.812 213.5 l 5
 159.812 219.125 l 5
 159.812 224.75 l 5
 165.438 224.75 l 5
 171.062 224.75 l 5
 271.938 224.75 l 5
 277.562 224.75 l 5
 277.562 219.125 l 5
 277.562 118.625 l 5
 277.562 113 l 6
 277.562 86.7793 298.601 65.375 325.188 65.375 c 4
 351.361 65.375 372.438 86.7793 372.438 113 c 6
 372.438 638.75 l 5
 372.438 644.375 l 5
 372.438 650 l 5xd8
EndSplineSet
Validated: 524289
EndChar

StartChar: k
Encoding: 107 107 47
Width: 809
VWidth: 0
Flags: W
HStem: 0.75 11.25<625.906 628.062> 532.125 117.375<520.344 628.062>
VStem: 191.938 117.375<0.75 213 330.75 638.25 638.25 649.5>
LayerCount: 2
Fore
SplineSet
191.938 649.5 m 5
 203.188 649.5 l 5
 298.062 649.5 l 5
 303.688 649.5 l 5
 309.312 649.5 l 5
 309.312 643.875 l 5
 309.312 638.25 l 5
 309.312 330.75 l 5
 352.906 330.75 l 5
 457.438 644.812 l 5
 457.438 649.5 l 5
 463.062 649.5 l 5
 622.438 649.5 l 5
 628.062 649.5 l 5
 628.062 643.875 l 5
 628.062 543.375 l 5
 628.062 532.125 l 5
 622.438 532.125 l 5
 520.344 532.125 l 5
 458.469 346.688 l 5
 465.5 332.625 l 5
 465.594 332.625 l 5
 468.125 327.656 l 5
 625.906 12 l 5
 628.062 12 l 5
 628.062 0.75 l 5
 622.438 0.75 l 5
 516.312 0.75 l 5
 510.688 0.75 l 5
 510.688 4.96875 l 5
 406.344 213 l 5
 309.312 213 l 5
 309.312 12 l 5
 309.312 0.75 l 5
 303.688 0.75 l 5
 203.188 0.75 l 5
 197.562 0.75 l 5
 191.938 0.75 l 5
 191.938 6.375 l 5
 191.938 638.25 l 5
 191.938 643.875 l 5
 191.938 649.5 l 5
EndSplineSet
Validated: 524289
EndChar

StartChar: l
Encoding: 108 108 48
Width: 724
VWidth: 0
Flags: W
HStem: 0 117.375<308.75 574.625> 629.125 20G<191 308.75> 629.125 20G<191 308.75>
VStem: 191 117.75<117.375 649.125>
LayerCount: 2
Fore
SplineSet
191 649.125 m 1xd0
 196.625 649.125 l 1
 202.25 649.125 l 1
 303.125 649.125 l 1
 308.75 649.125 l 1
 308.75 643.5 l 1
 308.75 117.375 l 1
 569 117.375 l 1
 574.625 117.375 l 1
 574.625 111.75 l 1
 574.625 11.25 l 1
 574.625 0 l 1
 569 0 l 1
 303.125 0 l 1
 202.25 0 l 1
 196.625 0 l 1
 191 0 l 1
 191 5.625 l 1
 191 11.25 l 1
 191 637.875 l 1
 191 643.5 l 1
 191 649.125 l 1xd0
EndSplineSet
Validated: 524289
EndChar

StartChar: m
Encoding: 109 109 49
Width: 1032
VWidth: 0
Flags: W
HStem: 0 21G<191 308.375 722.375 840.125> 0 21G<191 308.375 722.375 840.125> 629.125 20G<191 308.375 722.375 840.125> 629.125 20G<191 308.375 722.375 840.125>
VStem: 191 117.375<0 466.875 645.469 649.125> 722.375 117.75<0 466.875 645.562 649.125>
LayerCount: 2
Fore
SplineSet
191 643.5 m 5xac
 191 649.125 l 5
 196.625 649.125 l 5
 202.25 649.125 l 5
 300.781 649.125 l 5
 305.375 649.125 l 5
 308.375 649.125 l 5
 308.375 645.469 l 5
 515.375 386.625 l 5
 722.375 645.562 l 5
 722.375 649.125 l 5
 725.281 649.125 l 5
 729.875 649.125 l 5
 733.625 649.125 l 5
 834.5 649.125 l 5
 840.125 649.125 l 5
 840.125 643.5 l 5
 840.125 11.25 l 5
 840.125 0 l 5
 834.5 0 l 5
 733.625 0 l 5
 728 0 l 5
 722.375 0 l 5
 722.375 5.625 l 5
 722.375 466.875 l 5
 574.25 269.625 l 5
 574.25 265.875 l 5
 571.438 265.875 l 5
 569.75 263.625 l 5
 566.75 265.875 l 5
 464 265.875 l 5
 461 263.625 l 5
 459.312 265.875 l 5
 456.5 265.875 l 5
 456.5 269.625 l 5
 308.375 466.875 l 5
 308.375 11.25 l 5
 308.375 0 l 5
 302.75 0 l 5
 202.25 0 l 5
 196.625 0 l 5
 191 0 l 5
 191 5.625 l 5
 191 11.25 l 5
 191 637.875 l 5
 191 643.5 l 5xac
EndSplineSet
Validated: 524289
EndChar

StartChar: n
Encoding: 110 110 50
Width: 820
VWidth: 0
Flags: W
HStem: 0 21G<191 308.75 510.125 627.5> 0 21G<191 308.75 510.125 627.5> 631.375 20G<301.156 305.75 510.125 627.5>
VStem: 191 117.75<0 466.875 645.469 649.125> 510.125 117.375<0 265.875 393.75 649.125>
LayerCount: 2
Fore
SplineSet
303.969 651.375 m 5xb8
 305.75 649.125 l 5
 308.75 649.125 l 5
 308.75 645.469 l 5
 510.125 393.75 l 5
 510.125 637.875 l 5
 510.125 643.5 l 5
 510.125 649.125 l 5
 515.75 649.125 l 5
 521.375 649.125 l 5
 621.875 649.125 l 5
 627.5 649.125 l 5
 627.5 643.5 l 5
 627.5 11.25 l 5
 627.5 0 l 5
 621.875 0 l 5
 521.375 0 l 5
 515.75 0 l 5
 510.125 0 l 5
 510.125 5.625 l 5
 510.125 265.875 l 5
 464.375 265.875 l 5
 461.375 263.625 l 5
 459.688 265.875 l 5
 456.875 265.875 l 5
 456.875 269.625 l 5
 308.75 466.875 l 5
 308.75 11.25 l 5
 308.75 0 l 5
 303.125 0 l 5
 202.25 0 l 5
 196.625 0 l 5
 191 0 l 5
 191 5.625 l 5
 191 11.25 l 5
 191 637.875 l 5
 191 643.5 l 5
 191 649.125 l 5
 196.625 649.125 l 5
 202.25 649.125 l 5
 301.156 649.125 l 5
 303.969 651.375 l 5xb8
EndSplineSet
Validated: 524289
EndChar

StartChar: p
Encoding: 112 112 51
Width: 802
VWidth: 0
Flags: W
HStem: 0 21G<191 308.75> 0 21G<191 308.75> 212.25 117.75<308.75 414.875 414.875 468.144> 531.375 117.375<308.75 414.875 414.875 468.141>
VStem: 191 117.75<0 212.25 330 531.375> 510.125 117.375<370.085 491.135>
LayerCount: 2
Fore
SplineSet
191 648.75 m 5xbc
 196.625 648.75 l 5
 202.25 648.75 l 5
 303.125 648.75 l 5
 308.75 648.75 l 5
 409.25 648.75 l 5
 414.875 648.75 l 5
 414.875 648.562 l 5
 532.688 645.583 627.5 549.396 627.5 430.5 c 4
 627.5 311.965 532.695 215.432 414.875 212.438 c 5
 414.875 212.25 l 5
 409.25 212.25 l 5
 308.75 212.25 l 5
 308.75 11.25 l 5
 308.75 0 l 5
 303.125 0 l 5
 202.25 0 l 5
 196.625 0 l 5
 191 0 l 5
 191 5.625 l 5
 191 11.25 l 5
 191 637.5 l 5
 191 643.125 l 5
 191 648.75 l 5xbc
308.75 531.375 m 5
 308.75 330 l 5
 409.25 330 l 6
 465.093 330 510.125 375.053 510.125 430.5 c 4
 510.125 486.343 465.093 531.375 409.25 531.375 c 6
 308.75 531.375 l 5
EndSplineSet
Validated: 524289
EndChar

StartChar: q
Encoding: 113 113 52
Width: 988
VWidth: 0
Flags: W
HStem: 0 11.25<759.812 761.875> 0 117.375<401.077 576.494> 212.25 11.25<538 540.156> 531.375 117.375<401.077 579.688>
VStem: 166 117.375<235.077 413.673> 697.375 117.75<233.438 413.674>
LayerCount: 2
Fore
SplineSet
490.375 531.375 m 4x7c
 376.044 531.375 283.375 438.706 283.375 324.375 c 4
 283.375 210.044 376.044 117.375 490.375 117.375 c 4
 521.646 117.375 551.271 124.374 577.844 136.781 c 5
 540.156 212.25 l 5
 538 212.25 l 5
 538 216.562 l 5
 536.125 220.406 l 5
 538 221.344 l 5
 538 223.5 l 5
 542.219 223.5 l 5
 546.156 225.469 l 5
 547.188 223.5 l 5
 648.25 223.5 l 5
 652.188 225.469 l 5
 653.219 223.5 l 5
 655.375 223.5 l 5
 655.375 219.281 l 5
 661.281 207.562 l 5
 684.054 240.809 697.375 281.019 697.375 324.375 c 4
 697.375 438.706 604.706 531.375 490.375 531.375 c 4x7c
490.375 648.75 m 4
 669.657 648.75 815.125 503.666 815.125 324.375 c 4
 815.125 233.988 778.1 152.355 718.469 93.5625 c 5
 759.812 11.25 l 5
 761.875 11.25 l 5
 761.875 7.125 l 5
 763.75 3.1875 l 5
 761.875 2.25 l 5
 761.875 0 l 5xbc
 757.469 0 l 5
 753.719 -1.875 l 5
 752.781 0 l 5
 650.969 0 l 5
 647.219 -1.875 l 5
 646.281 0 l 5
 644.125 0 l 5
 644.125 4.3125 l 5
 630.438 31.5938 l 5
 588.039 11.332 540.505 0 490.375 0 c 4
 311.093 0 166 145.093 166 324.375 c 4
 166 503.657 311.093 648.75 490.375 648.75 c 4
EndSplineSet
Validated: 524289
EndChar

StartChar: r
Encoding: 114 114 53
Width: 810
VWidth: 0
Flags: W
HStem: 0 11.25<625.438 627.5> 212.25 117.75<308.375 405.781> 531.375 117.375<308.375 414.875 414.875 468.134>
VStem: 191 117.375<0 212.25 330 531.375> 509.75 117.75<0 4.3125 369.414 491.131>
LayerCount: 2
Fore
SplineSet
191 648.75 m 1
 196.625 648.75 l 1
 202.25 648.75 l 1
 302.75 648.75 l 1
 308.375 648.75 l 1
 409.25 648.75 l 1
 414.875 648.75 l 1
 414.875 648.562 l 1
 532.666 645.56 627.5 549.381 627.5 430.5 c 0
 627.5 347.068 580.546 274.491 511.625 237.75 c 1
 517.812 225.469 l 1
 520.438 220.406 l 1
 625.438 11.25 l 1
 627.5 11.25 l 1
 627.5 0 l 1
 621.875 0 l 1
 515.375 0 l 1
 509.75 0 l 1
 509.75 4.3125 l 1
 405.781 212.25 l 1
 308.375 212.25 l 1
 308.375 11.25 l 1
 308.375 0 l 1
 302.75 0 l 1
 202.25 0 l 1
 196.625 0 l 1
 191 0 l 1
 191 5.625 l 1
 191 11.25 l 1
 191 637.5 l 1
 191 643.125 l 1
 191 648.75 l 1
308.375 531.375 m 1
 308.375 330 l 1
 409.25 330 l 2
 464.697 330 509.75 375.053 509.75 430.5 c 0
 509.75 486.343 464.697 531.375 409.25 531.375 c 2
 308.375 531.375 l 1
EndSplineSet
Validated: 524289
EndChar

StartChar: s
Encoding: 115 115 54
Width: 772
VWidth: 0
Flags: W
HStem: 0 117.375<225.25 395.875 395.875 449.138> 212.812 117.282<331.246 384.625> 318.656 117.656<395.875 449.145> 531.375 117.75<331.243 384.625 384.625 502>
VStem: 172 117.375<370.187 491.288> 490.75 117.75<157.683 278.721>
LayerCount: 2
Fore
SplineSet
384.625 649.125 m 1xdc
 390.25 649.125 l 1
 395.875 649.125 l 1
 496.375 649.125 l 1
 502 649.125 l 1
 502 643.5 l 1
 502 542.625 l 1
 502 531.375 l 1
 496.375 531.375 l 1
 395.875 531.375 l 1
 390.25 531.375 l 2
 334.407 531.375 289.375 486.322 289.375 430.875 c 0
 289.375 376.938 331.434 333.021 384.625 330.094 c 1xdc
 384.625 425.25 l 1
 384.625 430.875 l 1
 384.625 436.5 l 1
 390.25 436.5 l 1
 395.875 436.5 l 1
 395.875 436.312 l 1
 513.698 433.321 608.5 336.788 608.5 218.25 c 0
 608.5 99.7295 513.678 3.20215 395.875 0.1875 c 1
 395.875 0 l 1
 390.25 0 l 1
 236.5 0 l 1
 230.875 0 l 1
 225.25 0 l 1
 225.25 5.625 l 1
 225.25 106.125 l 1
 225.25 111.75 l 1
 225.25 117.375 l 1
 236.5 117.375 l 1
 384.625 117.375 l 1
 390.25 117.375 l 2
 445.697 117.375 490.75 162.407 490.75 218.25 c 0
 490.75 271.808 448.709 315.729 395.875 318.656 c 1xbc
 395.875 223.875 l 1
 395.875 212.625 l 1
 390.25 212.625 l 1
 384.625 212.625 l 1
 384.625 212.812 l 1
 266.474 215.795 172 311.991 172 430.875 c 0
 172 549.398 266.465 645.946 384.625 648.938 c 1
 384.625 649.125 l 1xdc
EndSplineSet
Validated: 524289
EndChar

StartChar: t
Encoding: 116 116 55
Width: 762
VWidth: 0
Flags: W
HStem: 0.75 21G<317.375 434.75> 0.75 21G<317.375 434.75> 532.125 117.75<158 317.375 434.75 594.5>
VStem: 317.375 117.375<0.75 532.125>
LayerCount: 2
Fore
SplineSet
158 649.875 m 1xb0
 169.25 649.875 l 1
 588.875 649.875 l 1
 594.5 649.875 l 1
 594.5 644.25 l 1
 594.5 543.375 l 1
 594.5 532.125 l 1
 588.875 532.125 l 1
 434.75 532.125 l 1
 434.75 12 l 1
 434.75 0.75 l 1
 429.125 0.75 l 1
 328.625 0.75 l 1
 323 0.75 l 1
 317.375 0.75 l 1
 317.375 6.375 l 1
 317.375 12 l 1
 317.375 532.125 l 1
 169.25 532.125 l 1
 158 532.125 l 1
 158 537.75 l 1
 158 543.375 l 1
 158 638.625 l 1
 158 644.25 l 1
 158 649.875 l 1xb0
EndSplineSet
Validated: 524289
EndChar

StartChar: u
Encoding: 117 117 56
Width: 868
VWidth: 0
Flags: W
HStem: 0 117.375<364.799 505.019> 629.125 20G<189 306.75 561 678.75> 629.125 20G<189 306.75 561 678.75>
VStem: 189 117.75<177.777 250.5 250.5 649.125> 561 117.75<176.891 236.25 236.25 649.125>
LayerCount: 2
Fore
SplineSet
189 649.125 m 1xd8
 194.625 649.125 l 1
 200.25 649.125 l 1
 301.125 649.125 l 1
 306.75 649.125 l 1
 306.75 643.5 l 1
 306.75 250.5 l 1
 306.75 244.875 l 2
 306.75 174.398 363.416 117.375 433.875 117.375 c 0
 503.941 117.375 561 174.416 561 244.875 c 2
 561 637.875 l 1
 561 643.5 l 1
 561 649.125 l 1
 566.625 649.125 l 1
 572.25 649.125 l 1
 673.125 649.125 l 1
 678.75 649.125 l 1
 678.75 643.5 l 1
 678.75 250.5 l 1
 678.75 244.875 l 1
 678.75 236.25 l 1
 678.562 236.25 l 1
 674.039 104.824 566.045 0 433.875 0 c 0
 298.84 0 189 109.462 189 244.875 c 2
 189 248.25 l 1
 189 250.5 l 1
 189 637.875 l 1
 189 643.5 l 1
 189 649.125 l 1xd8
EndSplineSet
Validated: 524289
EndChar

StartChar: v
Encoding: 118 118 57
Width: 857
VWidth: 0
Flags: W
HStem: 0.3125 21G<364.625 482.375> 0.3125 21G<364.625 482.375> 638.188 11.25<152 153.5 693.594 695>
LayerCount: 2
Fore
SplineSet
152 649.438 m 1xa0
 157.625 649.438 l 1
 264.125 649.438 l 1
 269.75 649.438 l 1
 269.75 644.75 l 1
 423.5 183.125 l 1
 577.25 644.469 l 1
 577.25 649.438 l 1
 582.875 649.438 l 1
 689.375 649.438 l 1
 695 649.438 l 1
 695 638.188 l 1
 693.594 638.188 l 1
 482.375 5 l 1
 482.375 0.3125 l 1
 476.75 0.3125 l 1
 370.25 0.3125 l 1
 364.625 0.3125 l 1
 364.625 5 l 1
 153.5 638.188 l 1
 152 638.188 l 1
 152 649.438 l 1xa0
EndSplineSet
Validated: 524289
EndChar

StartChar: w
Encoding: 119 119 58
Width: 1070
VWidth: 0
Flags: W
HStem: 0 21G<366.719 371.688 476.312 481.281 579.25 584.312 688.938 693.906> 0 21G<366.719 371.688 476.312 481.281 579.25 584.312 688.938 693.906> 639 11.25<152.5 154.188 365.125 366.719 693.812 695.5 906.531 908.125>
LayerCount: 2
Fore
SplineSet
161.688 651.75 m 5xa0
 162.156 650.25 l 5
 263.688 650.25 l 5
 268.188 651.75 l 5
 268.75 650.25 l 5
 270.25 650.25 l 5
 270.25 645.844 l 5
 424 184.594 l 5
 471.344 325.875 l 5
 366.719 639 l 5
 365.125 639 l 5
 365.125 643.688 l 5
 363.625 648.188 l 5
 365.125 648.656 l 5
 365.125 650.25 l 5
 369.812 650.25 l 5
 374.312 651.75 l 5
 374.781 650.25 l 5
 476.312 650.25 l 5
 480.812 651.75 l 5
 481.281 650.25 l 5
 482.875 650.25 l 5
 482.875 645.562 l 5
 530.125 503.062 l 5
 577.75 645.844 l 5
 577.75 650.25 l 5
 579.25 650.25 l 5
 579.812 651.75 l 5
 584.312 650.25 l 5
 685.844 650.25 l 5
 686.312 651.75 l 5
 690.812 650.25 l 5
 695.5 650.25 l 5
 695.5 648.656 l 5
 697 648.188 l 5
 695.5 643.875 l 5
 695.5 639 l 5
 693.812 639 l 5
 589.375 325.875 l 5
 636.625 184.312 l 5
 790.375 645.562 l 5
 790.375 650.25 l 5
 791.969 650.25 l 5
 792.438 651.75 l 5
 796.938 650.25 l 5
 898.469 650.25 l 5
 898.938 651.75 l 5
 903.438 650.25 l 5
 908.125 650.25 l 5
 908.125 648.656 l 5
 909.625 648.188 l 5
 908.125 643.688 l 5
 908.125 639 l 5
 906.531 639 l 5
 695.5 6.46875 l 5
 695.5 1.5 l 5
 693.906 1.5 l 5
 693.438 0 l 5
 688.938 1.5 l 5
 584.312 1.5 l 5
 579.812 0 l 5
 579.25 1.5 l 5
 577.75 1.5 l 5
 577.75 5.90625 l 5
 530.125 148.688 l 5
 482.875 6.1875 l 5
 482.875 1.5 l 5
 481.281 1.5 l 5
 480.812 0 l 5
 476.312 1.5 l 5
 371.688 1.5 l 5
 367.188 0 l 5
 366.719 1.5 l 5
 365.125 1.5 l 5
 365.125 6.1875 l 5
 154.188 639 l 5
 152.5 639 l 5
 152.5 643.875 l 5
 151 648.188 l 5
 152.5 648.656 l 5
 152.5 650.25 l 5
 157.188 650.25 l 5
 161.688 651.75 l 5xa0
EndSplineSet
Validated: 524289
EndChar

StartChar: x
Encoding: 120 120 59
Width: 776
VWidth: 0
Flags: W
HStem: 1 11.25<171 173.156 605.438 607.5> 638.875 11.25<171 173.062 605.344 607.5>
LayerCount: 2
Fore
SplineSet
171 650.125 m 1
 176.625 650.125 l 1
 283.125 650.125 l 1
 288.75 650.125 l 1
 288.75 645.906 l 1
 389.25 444.531 l 1
 489.75 645.906 l 1
 489.75 650.125 l 1
 495.375 650.125 l 1
 601.875 650.125 l 1
 607.5 650.125 l 1
 607.5 638.875 l 1
 605.344 638.875 l 1
 448.781 325.469 l 1
 605.438 12.25 l 1
 607.5 12.25 l 1
 607.5 1 l 1
 601.875 1 l 1
 495.375 1 l 1
 489.75 1 l 1
 489.75 5.21875 l 1
 389.25 206.594 l 1
 288.75 5.21875 l 1
 288.75 1 l 1
 283.125 1 l 1
 176.625 1 l 1
 171 1 l 1
 171 12.25 l 1
 173.156 12.25 l 1
 329.719 325.375 l 1
 173.062 638.875 l 1
 171 638.875 l 1
 171 650.125 l 1
EndSplineSet
Validated: 524289
EndChar

StartChar: y
Encoding: 121 121 60
Width: 739
VWidth: 0
Flags: W
HStem: 0 21G<305.375 422.75> 0 21G<305.375 422.75> 637.875 11.25<146 148.156 580.062 582.125>
VStem: 305.375 117.375<0 322.969>
LayerCount: 2
Fore
SplineSet
146 649.125 m 1xb0
 151.625 649.125 l 1
 257.75 649.125 l 1
 263.375 649.125 l 1
 263.375 644.906 l 1
 364.25 443.531 l 1
 453.219 621.656 l 1
 464.75 644.719 l 1
 464.75 649.125 l 1
 470.375 649.125 l 1
 576.5 649.125 l 1
 582.125 649.125 l 1
 582.125 637.875 l 1
 580.062 637.875 l 1
 422.75 322.969 l 1
 422.75 11.25 l 1
 422.75 0 l 1
 417.125 0 l 1
 316.625 0 l 1
 311 0 l 1
 305.375 0 l 1
 305.375 5.625 l 1
 305.375 11.25 l 1
 305.375 323.156 l 1
 148.156 637.875 l 1
 146 637.875 l 1
 146 649.125 l 1xb0
EndSplineSet
Validated: 524289
EndChar

StartChar: z
Encoding: 122 122 61
Width: 792
VWidth: 0
Flags: W
HStem: 0 11.25<177 179.156> 0 117.375<351.375 613.5> 531.375 117.75<177 439.406> 637.875 11.25<611.438 613.5>
LayerCount: 2
Fore
SplineSet
177 649.125 m 5x20
 188.25 649.125 l 5x20
 607.875 649.125 l 5
 613.5 649.125 l 5
 613.5 637.875 l 5
 611.438 637.875 l 5
 351.375 117.375 l 5
 607.875 117.375 l 5
 613.5 117.375 l 5x50
 613.5 111.75 l 5
 613.5 11.25 l 5x80
 613.5 0 l 5
 607.875 0 l 5
 182.625 0 l 5x40
 177 0 l 5
 177 11.25 l 5
 179.156 11.25 l 5
 439.406 531.375 l 5
 188.25 531.375 l 5
 177 531.375 l 5xa0
 177 537 l 5
 177 542.625 l 5
 177 637.875 l 5x10
 177 643.5 l 5
 177 649.125 l 5x20
EndSplineSet
Validated: 524289
EndChar

StartChar: exclam
Encoding: 33 33 62
Width: 1000
VWidth: 0
Flags: W
HStem: 0 170.625<444.215 555.858>
VStem: 414.688 170.625<29.4542 141.098> 446.562 117.75<212.25 702>
LayerCount: 2
Fore
SplineSet
558.676 377.596 m 5
 558.676 271.096 l 5x80
446.562 702 m 5xa0
 452.188 702 l 5
 457.812 702 l 5
 558.688 702 l 5
 564.312 702 l 5
 564.312 696.375 l 5
 564.312 223.5 l 5
 564.312 212.25 l 5
 558.688 212.25 l 5
 457.812 212.25 l 5
 452.188 212.25 l 5
 446.562 212.25 l 5
 446.562 217.875 l 5
 446.562 690.75 l 5
 446.562 696.375 l 5
 446.562 702 l 5xa0
500.188 170.625 m 4
 547.109 170.625 585.312 132.393 585.312 85.125 c 4
 585.312 38.2031 547.109 0 500.188 0 c 4
 452.92 0 414.688 38.2031 414.688 85.125 c 4xc0
 414.688 132.393 452.92 170.625 500.188 170.625 c 4
EndSplineSet
Validated: 524291
EndChar

StartChar: guillemotleft
Encoding: 171 171 63
Width: 1000
VWidth: 0
Flags: W
HStem: 0 330
VStem: 467.75 11.25<0 1.59375 328.406 330> 839.75 11.25<0 1.59375 328.406 330>
LayerCount: 2
Fore
SplineSet
467.75 330 m 5
 479 330 l 5
 479 324.375 l 5
 479 218.25 l 5
 479 212.625 l 5
 474.312 212.625 l 5
 331.812 165 l 5
 474.312 117.375 l 5
 479 117.375 l 5
 479 111.75 l 5
 479 5.625 l 5
 479 0 l 5
 467.75 0 l 5
 467.75 1.59375 l 5
 153.688 106.125 l 5
 149 106.125 l 5
 149 111.75 l 5
 149 218.25 l 5
 149 223.875 l 5
 153.688 223.875 l 5
 467.75 328.406 l 5
 467.75 330 l 5
839.75 330 m 5
 851 330 l 5
 851 324.375 l 5
 851 218.25 l 5
 851 212.625 l 5
 846.312 212.625 l 5
 703.812 165 l 5
 846.312 117.375 l 5
 851 117.375 l 5
 851 111.75 l 5
 851 5.625 l 5
 851 0 l 5
 839.75 0 l 5
 839.75 1.59375 l 5
 525.688 106.125 l 5
 521 106.125 l 5
 521 111.75 l 5
 521 218.25 l 5
 521 223.875 l 5
 525.688 223.875 l 5
 839.75 328.406 l 5
 839.75 330 l 5
EndSplineSet
Validated: 524289
EndChar

StartChar: guillemotright
Encoding: 187 187 64
Width: 1000
VWidth: 0
Flags: W
LayerCount: 2
Fore
SplineSet
532.25 330 m 5
 521 330 l 5
 521 324.375 l 5
 521 218.25 l 5
 521 212.625 l 5
 525.688 212.625 l 5
 668.188 165 l 5
 525.688 117.375 l 5
 521 117.375 l 5
 521 111.75 l 5
 521 5.625 l 5
 521 0 l 5
 532.25 0 l 5
 532.25 1.59375 l 5
 846.312 106.125 l 5
 851 106.125 l 5
 851 111.75 l 5
 851 218.25 l 5
 851 223.875 l 5
 846.312 223.875 l 5
 532.25 328.406 l 5
 532.25 330 l 5
160.25 330 m 5
 149 330 l 5
 149 324.375 l 5
 149 218.25 l 5
 149 212.625 l 5
 153.688 212.625 l 5
 296.188 165 l 5
 153.688 117.375 l 5
 149 117.375 l 5
 149 111.75 l 5
 149 5.625 l 5
 149 0 l 5
 160.25 0 l 5
 160.25 1.59375 l 5
 474.312 106.125 l 5
 479 106.125 l 5
 479 111.75 l 5
 479 218.25 l 5
 479 223.875 l 5
 474.312 223.875 l 5
 160.25 328.406 l 5
 160.25 330 l 5
EndSplineSet
Validated: 524297
EndChar

StartChar: question
Encoding: 63 63 65
Width: 1000
VWidth: 0
Flags: W
HStem: 0 170.625<369.777 481.42> 212.625 170.625<361.625 478.578> 265.594 117.656<479 532.27> 584.625 117.375<308.375 479 479 532.267>
VStem: 340.25 170.625<29.4554 141.098> 361.625 117.375<212.625 265.594> 574.25 117.375<423.331 544.388>
LayerCount: 2
Fore
SplineSet
308.375 702 m 5xd6
 319.625 702 l 5
 467.75 702 l 5
 473.375 702 l 5
 479 702 l 5
 479 701.906 l 5
 596.814 698.927 691.625 602.646 691.625 483.75 c 4
 691.625 365.212 596.823 268.585 479 265.594 c 5xb6
 479 223.875 l 5
 479 212.625 l 5
 473.375 212.625 l 5
 372.875 212.625 l 5
 367.25 212.625 l 5
 361.625 212.625 l 5
 361.625 218.25 l 5
 361.625 372 l 5
 361.625 377.625 l 5
 361.625 383.25 l 5
 372.875 383.25 l 5
 473.375 383.25 l 6
 529.218 383.25 574.25 428.303 574.25 483.75 c 4
 574.25 539.593 529.218 584.625 473.375 584.625 c 6
 319.625 584.625 l 5
 308.375 584.625 l 5
 308.375 590.25 l 5
 308.375 690.75 l 5
 308.375 696.375 l 5
 308.375 702 l 5xd6
425.75 170.625 m 4
 472.669 170.625 510.875 132.393 510.875 85.125 c 4
 510.875 38.2061 472.669 0 425.75 0 c 4
 378.482 0 340.25 38.2061 340.25 85.125 c 4x9a
 340.25 132.393 378.482 170.625 425.75 170.625 c 4
EndSplineSet
Validated: 524289
EndChar

StartChar: hyphen
Encoding: 45 45 66
Width: 1000
VWidth: 0
Flags: W
HStem: 219.75 117.75<334.812 665.188>
VStem: 334.812 330.375<219.75 337.5>
LayerCount: 2
Fore
SplineSet
334.812 337.5 m 5
 340.438 337.5 l 5
 346.062 337.5 l 5
 659.562 337.5 l 5
 665.188 337.5 l 5
 665.188 331.875 l 5
 665.188 231 l 5
 665.188 219.75 l 5
 659.562 219.75 l 5
 346.062 219.75 l 5
 340.438 219.75 l 5
 334.812 219.75 l 5
 334.812 225.375 l 5
 334.812 231 l 5
 334.812 326.25 l 5
 334.812 331.875 l 5
 334.812 337.5 l 5
EndSplineSet
Validated: 524289
EndChar

StartChar: semicolon
Encoding: 59 59 67
Width: 1000
VWidth: 0
Flags: W
HStem: -202.219 11.25<372.125 374.281> 10.4062 11.25<593.94 596> 63.2812 171<486.764 598.434>
VStem: 457.25 170.625<92.9492 204.612>
LayerCount: 2
Fore
SplineSet
542.75 234.281 m 4
 589.704 234.281 627.875 195.7 627.875 148.781 c 4
 627.875 101.859 589.704 63.2812 542.75 63.2812 c 4
 495.45 63.2812 457.25 101.859 457.25 148.781 c 4
 457.25 195.7 495.45 234.281 542.75 234.281 c 4
478.625 21.6562 m 5
 484.25 21.6562 l 5
 590.375 21.6562 l 5
 596 21.6562 l 5
 596 10.4062 l 5
 593.94 10.4062 l 5
 489.875 -198 l 5
 489.875 -202.219 l 5
 484.25 -202.219 l 5
 377.75 -202.219 l 5
 372.125 -202.219 l 5
 372.125 -190.969 l 5
 374.281 -190.969 l 5
 478.625 17.4375 l 5
 478.625 21.6562 l 5
EndSplineSet
Validated: 524289
EndChar

StartChar: period
Encoding: 46 46 68
Width: 1000
VWidth: 0
Flags: W
HStem: 0 171<444.202 555.871>
VStem: 414.688 170.625<29.668 141.331>
LayerCount: 2
Fore
SplineSet
500.188 171 m 4
 547.142 171 585.312 132.419 585.312 85.5 c 4
 585.312 38.5781 547.142 0 500.188 0 c 4
 452.888 0 414.688 38.5781 414.688 85.5 c 4
 414.688 132.419 452.888 171 500.188 171 c 4
EndSplineSet
Validated: 524289
EndChar

StartChar: colon
Encoding: 58 58 69
Width: 1000
VWidth: 0
Flags: W
HStem: 0 171<454.231 501.358 501.358 501.358 501.358 548.485> 226 171<451.544 498.671 498.671 498.671 498.671 545.798>
VStem: 416.031 170.625<38.5781 85.4985 85.4985 85.4985 85.4985 132.419 264.578 311.499 311.499 311.499 311.499 358.419>
LayerCount: 2
Fore
SplineSet
501.531 171 m 0
 548.485 171 586.656 132.419 586.656 85.5 c 0
 586.656 38.5781 548.485 0 501.531 0 c 0
 454.231 0 416.031 38.5781 416.031 85.5 c 0
 416.031 132.419 454.231 171 501.531 171 c 0
501.531 171 m 0
 548.485 171 586.656 132.419 586.656 85.5 c 0
 586.656 38.5781 548.485 0 501.531 0 c 0
 454.231 0 416.031 38.5781 416.031 85.5 c 0
 416.031 132.419 454.231 171 501.531 171 c 0
498.844 397 m 0
 545.798 397 583.969 358.419 583.969 311.5 c 0
 583.969 264.578 545.798 226 498.844 226 c 0
 451.544 226 413.344 264.578 413.344 311.5 c 0
 413.344 358.419 451.544 397 498.844 397 c 0
498.844 397 m 0
 545.798 397 583.969 358.419 583.969 311.5 c 0
 583.969 264.578 545.798 226 498.844 226 c 0
 451.544 226 413.344 264.578 413.344 311.5 c 0
 413.344 358.419 451.544 397 498.844 397 c 0
EndSplineSet
Validated: 524293
EndChar

StartChar: Agrave
Encoding: 192 192 70
Width: 642
VWidth: 0
Flags: W
HStem: -1.5625 11.25<49.6875 51.1875 590.719 592.312> 157.812 117.376<258 384.281> 629.062 20G<263.906 268.875 373.125 378.188> 629.062 20G<263.906 268.875 373.125 378.188> 706 57.75<149.812 480.188>
LayerCount: 2
Fore
SplineSet
149.812 763.75 m 5xc8
 155.438 763.75 l 5
 161.062 763.75 l 5
 474.562 763.75 l 5
 480.188 763.75 l 5
 480.188 758.125 l 5
 480.188 717.25 l 5
 480.188 706 l 5
 474.562 706 l 5
 161.062 706 l 5
 155.438 706 l 5
 149.812 706 l 5
 149.812 711.625 l 5
 149.812 717.25 l 5
 149.812 752.5 l 5
 149.812 758.125 l 5
 149.812 763.75 l 5xc8
321.094 464.562 m 1
 258 275.188 l 1
 267.938 275.188 l 1
 374.062 275.188 l 1
 384.281 275.188 l 1
 321.094 464.562 l 1
264.375 649.062 m 1xe8
 268.875 647.562 l 1
 373.125 647.562 l 1
 377.625 649.062 l 1
 378.188 647.562 l 1
 379.688 647.562 l 1
 379.688 643.156 l 1
 590.719 9.6875 l 1
 592.312 9.6875 l 1
 592.312 5 l 1
 593.812 0.40625 l 1
 592.312 -0.0625 l 1
 592.312 -1.5625 l 1
 587.719 -1.5625 l 1
 583.125 -3.0625 l 1
 582.656 -1.5625 l 1
 481.5 -1.5625 l 1
 477 -3.0625 l 1
 476.531 -1.5625 l 1
 474.938 -1.5625 l 1
 474.938 3.21875 l 1
 423.375 157.812 l 1
 218.906 157.812 l 1
 167.438 3.5 l 1
 167.438 -1.5625 l 1
 165.844 -1.5625 l 1
 165.376 -3.0625 l 1
 160.876 -1.5625 l 1
 59.4375 -1.5625 l 1
 58.875 -3.0625 l 1
 54.375 -1.5625 l 1
 49.6875 -1.5625 l 1
 49.6875 0.03125 l 1
 48.1875 0.5 l 1
 49.6875 5.28125 l 1
 49.6875 9.6875 l 1
 51.1875 9.6875 l 1
 262.312 642.875 l 1
 262.312 647.562 l 1
 263.906 647.562 l 1
 264.375 649.062 l 1xe8
EndSplineSet
Validated: 524289
EndChar

StartChar: Aacute
Encoding: 193 193 71
Width: 642
VWidth: 0
Flags: W
HStem: -1.5625 11.25<49.6875 51.1875 590.719 592.312> 157.812 117.376<258 384.281> 629.062 20G<263.906 268.875 373.125 378.188> 629.062 20G<263.906 268.875 373.125 378.188> 706 57.75<149.812 480.188>
LayerCount: 2
Fore
SplineSet
149.812 763.75 m 1xc8
 155.438 763.75 l 1
 161.062 763.75 l 1
 474.562 763.75 l 1
 480.188 763.75 l 1
 480.188 758.125 l 1
 480.188 717.25 l 1
 480.188 706 l 1
 474.562 706 l 1
 161.062 706 l 1
 155.438 706 l 1
 149.812 706 l 1
 149.812 711.625 l 1
 149.812 717.25 l 1
 149.812 752.5 l 1
 149.812 758.125 l 1
 149.812 763.75 l 1xc8
321.094 464.562 m 1
 258 275.188 l 1
 267.938 275.188 l 1
 374.062 275.188 l 1
 384.281 275.188 l 1
 321.094 464.562 l 1
264.375 649.062 m 1xe8
 268.875 647.562 l 1
 373.125 647.562 l 1
 377.625 649.062 l 1
 378.188 647.562 l 1
 379.688 647.562 l 1
 379.688 643.156 l 1
 590.719 9.6875 l 1
 592.312 9.6875 l 1
 592.312 5 l 1
 593.812 0.40625 l 1
 592.312 -0.0625 l 1
 592.312 -1.5625 l 1
 587.719 -1.5625 l 1
 583.125 -3.0625 l 1
 582.656 -1.5625 l 1
 481.5 -1.5625 l 1
 477 -3.0625 l 1
 476.531 -1.5625 l 1
 474.938 -1.5625 l 1
 474.938 3.21875 l 1
 423.375 157.812 l 1
 218.906 157.812 l 1
 167.438 3.5 l 1
 167.438 -1.5625 l 1
 165.844 -1.5625 l 1
 165.376 -3.0625 l 1
 160.876 -1.5625 l 1
 59.4375 -1.5625 l 1
 58.875 -3.0625 l 1
 54.375 -1.5625 l 1
 49.6875 -1.5625 l 1
 49.6875 0.03125 l 1
 48.1875 0.5 l 1
 49.6875 5.28125 l 1
 49.6875 9.6875 l 1
 51.1875 9.6875 l 1
 262.312 642.875 l 1
 262.312 647.562 l 1
 263.906 647.562 l 1
 264.375 649.062 l 1xe8
EndSplineSet
Validated: 524289
EndChar

StartChar: Acircumflex
Encoding: 194 194 72
Width: 642
VWidth: 0
Flags: W
HStem: -1.5625 11.25<49.6875 51.1875 590.719 592.312> 157.812 117.376<258 384.281> 629.062 20G<263.906 268.875 373.125 378.188> 629.062 20G<263.906 268.875 373.125 378.188> 706 57.75<149.812 480.188>
LayerCount: 2
Fore
SplineSet
149.812 763.75 m 1xc8
 155.438 763.75 l 1
 161.062 763.75 l 1
 474.562 763.75 l 1
 480.188 763.75 l 1
 480.188 758.125 l 1
 480.188 717.25 l 1
 480.188 706 l 1
 474.562 706 l 1
 161.062 706 l 1
 155.438 706 l 1
 149.812 706 l 1
 149.812 711.625 l 1
 149.812 717.25 l 1
 149.812 752.5 l 1
 149.812 758.125 l 1
 149.812 763.75 l 1xc8
321.094 464.562 m 1
 258 275.188 l 1
 267.938 275.188 l 1
 374.062 275.188 l 1
 384.281 275.188 l 1
 321.094 464.562 l 1
264.375 649.062 m 1xe8
 268.875 647.562 l 1
 373.125 647.562 l 1
 377.625 649.062 l 1
 378.188 647.562 l 1
 379.688 647.562 l 1
 379.688 643.156 l 1
 590.719 9.6875 l 1
 592.312 9.6875 l 1
 592.312 5 l 1
 593.812 0.40625 l 1
 592.312 -0.0625 l 1
 592.312 -1.5625 l 1
 587.719 -1.5625 l 1
 583.125 -3.0625 l 1
 582.656 -1.5625 l 1
 481.5 -1.5625 l 1
 477 -3.0625 l 1
 476.531 -1.5625 l 1
 474.938 -1.5625 l 1
 474.938 3.21875 l 1
 423.375 157.812 l 1
 218.906 157.812 l 1
 167.438 3.5 l 1
 167.438 -1.5625 l 1
 165.844 -1.5625 l 1
 165.376 -3.0625 l 1
 160.876 -1.5625 l 1
 59.4375 -1.5625 l 1
 58.875 -3.0625 l 1
 54.375 -1.5625 l 1
 49.6875 -1.5625 l 1
 49.6875 0.03125 l 1
 48.1875 0.5 l 1
 49.6875 5.28125 l 1
 49.6875 9.6875 l 1
 51.1875 9.6875 l 1
 262.312 642.875 l 1
 262.312 647.562 l 1
 263.906 647.562 l 1
 264.375 649.062 l 1xe8
EndSplineSet
Validated: 524289
EndChar

StartChar: Atilde
Encoding: 195 195 73
Width: 642
VWidth: 0
Flags: W
HStem: -1.5625 11.25<49.6875 51.1875 590.719 592.312> 157.812 117.376<258 384.281> 629.062 20G<263.906 268.875 373.125 378.188> 629.062 20G<263.906 268.875 373.125 378.188> 706 57.75<149.812 480.188>
LayerCount: 2
Fore
SplineSet
149.812 763.75 m 1xc8
 155.438 763.75 l 1
 161.062 763.75 l 1
 474.562 763.75 l 1
 480.188 763.75 l 1
 480.188 758.125 l 1
 480.188 717.25 l 1
 480.188 706 l 1
 474.562 706 l 1
 161.062 706 l 1
 155.438 706 l 1
 149.812 706 l 1
 149.812 711.625 l 1
 149.812 717.25 l 1
 149.812 752.5 l 1
 149.812 758.125 l 1
 149.812 763.75 l 1xc8
321.094 464.562 m 1
 258 275.188 l 1
 267.938 275.188 l 1
 374.062 275.188 l 1
 384.281 275.188 l 1
 321.094 464.562 l 1
264.375 649.062 m 1xe8
 268.875 647.562 l 1
 373.125 647.562 l 1
 377.625 649.062 l 1
 378.188 647.562 l 1
 379.688 647.562 l 1
 379.688 643.156 l 1
 590.719 9.6875 l 1
 592.312 9.6875 l 1
 592.312 5 l 1
 593.812 0.40625 l 1
 592.312 -0.0625 l 1
 592.312 -1.5625 l 1
 587.719 -1.5625 l 1
 583.125 -3.0625 l 1
 582.656 -1.5625 l 1
 481.5 -1.5625 l 1
 477 -3.0625 l 1
 476.531 -1.5625 l 1
 474.938 -1.5625 l 1
 474.938 3.21875 l 1
 423.375 157.812 l 1
 218.906 157.812 l 1
 167.438 3.5 l 1
 167.438 -1.5625 l 1
 165.844 -1.5625 l 1
 165.376 -3.0625 l 1
 160.876 -1.5625 l 1
 59.4375 -1.5625 l 1
 58.875 -3.0625 l 1
 54.375 -1.5625 l 1
 49.6875 -1.5625 l 1
 49.6875 0.03125 l 1
 48.1875 0.5 l 1
 49.6875 5.28125 l 1
 49.6875 9.6875 l 1
 51.1875 9.6875 l 1
 262.312 642.875 l 1
 262.312 647.562 l 1
 263.906 647.562 l 1
 264.375 649.062 l 1xe8
EndSplineSet
Validated: 524289
EndChar

StartChar: Adieresis
Encoding: 196 196 74
Width: 642
VWidth: 0
Flags: W
HStem: -1.5625 11.25<49.6875 51.1875 590.719 592.312> 157.812 117.376<258 384.281> 629.062 20G<263.906 268.875 373.125 378.188> 629.062 20G<263.906 268.875 373.125 378.188> 706 57.75<149.812 480.188>
LayerCount: 2
Fore
SplineSet
149.812 763.75 m 1xc8
 155.438 763.75 l 1
 161.062 763.75 l 1
 474.562 763.75 l 1
 480.188 763.75 l 1
 480.188 758.125 l 1
 480.188 717.25 l 1
 480.188 706 l 1
 474.562 706 l 1
 161.062 706 l 1
 155.438 706 l 1
 149.812 706 l 1
 149.812 711.625 l 1
 149.812 717.25 l 1
 149.812 752.5 l 1
 149.812 758.125 l 1
 149.812 763.75 l 1xc8
321.094 464.562 m 1
 258 275.188 l 1
 267.938 275.188 l 1
 374.062 275.188 l 1
 384.281 275.188 l 1
 321.094 464.562 l 1
264.375 649.062 m 1xe8
 268.875 647.562 l 1
 373.125 647.562 l 1
 377.625 649.062 l 1
 378.188 647.562 l 1
 379.688 647.562 l 1
 379.688 643.156 l 1
 590.719 9.6875 l 1
 592.312 9.6875 l 1
 592.312 5 l 1
 593.812 0.40625 l 1
 592.312 -0.0625 l 1
 592.312 -1.5625 l 1
 587.719 -1.5625 l 1
 583.125 -3.0625 l 1
 582.656 -1.5625 l 1
 481.5 -1.5625 l 1
 477 -3.0625 l 1
 476.531 -1.5625 l 1
 474.938 -1.5625 l 1
 474.938 3.21875 l 1
 423.375 157.812 l 1
 218.906 157.812 l 1
 167.438 3.5 l 1
 167.438 -1.5625 l 1
 165.844 -1.5625 l 1
 165.376 -3.0625 l 1
 160.876 -1.5625 l 1
 59.4375 -1.5625 l 1
 58.875 -3.0625 l 1
 54.375 -1.5625 l 1
 49.6875 -1.5625 l 1
 49.6875 0.03125 l 1
 48.1875 0.5 l 1
 49.6875 5.28125 l 1
 49.6875 9.6875 l 1
 51.1875 9.6875 l 1
 262.312 642.875 l 1
 262.312 647.562 l 1
 263.906 647.562 l 1
 264.375 649.062 l 1xe8
EndSplineSet
Validated: 524289
EndChar

StartChar: Aring
Encoding: 197 197 75
Width: 642
VWidth: 0
Flags: W
HStem: -1.5625 11.25<49.6875 51.1875 590.719 592.312> 157.812 117.376<258 384.281> 629.062 20G<263.906 268.875 373.125 378.188> 629.062 20G<263.906 268.875 373.125 378.188> 706 57.75<149.812 480.188>
LayerCount: 2
Fore
SplineSet
149.812 763.75 m 1xc8
 155.438 763.75 l 1
 161.062 763.75 l 1
 474.562 763.75 l 1
 480.188 763.75 l 1
 480.188 758.125 l 1
 480.188 717.25 l 1
 480.188 706 l 1
 474.562 706 l 1
 161.062 706 l 1
 155.438 706 l 1
 149.812 706 l 1
 149.812 711.625 l 1
 149.812 717.25 l 1
 149.812 752.5 l 1
 149.812 758.125 l 1
 149.812 763.75 l 1xc8
321.094 464.562 m 1
 258 275.188 l 1
 267.938 275.188 l 1
 374.062 275.188 l 1
 384.281 275.188 l 1
 321.094 464.562 l 1
264.375 649.062 m 1xe8
 268.875 647.562 l 1
 373.125 647.562 l 1
 377.625 649.062 l 1
 378.188 647.562 l 1
 379.688 647.562 l 1
 379.688 643.156 l 1
 590.719 9.6875 l 1
 592.312 9.6875 l 1
 592.312 5 l 1
 593.812 0.40625 l 1
 592.312 -0.0625 l 1
 592.312 -1.5625 l 1
 587.719 -1.5625 l 1
 583.125 -3.0625 l 1
 582.656 -1.5625 l 1
 481.5 -1.5625 l 1
 477 -3.0625 l 1
 476.531 -1.5625 l 1
 474.938 -1.5625 l 1
 474.938 3.21875 l 1
 423.375 157.812 l 1
 218.906 157.812 l 1
 167.438 3.5 l 1
 167.438 -1.5625 l 1
 165.844 -1.5625 l 1
 165.376 -3.0625 l 1
 160.876 -1.5625 l 1
 59.4375 -1.5625 l 1
 58.875 -3.0625 l 1
 54.375 -1.5625 l 1
 49.6875 -1.5625 l 1
 49.6875 0.03125 l 1
 48.1875 0.5 l 1
 49.6875 5.28125 l 1
 49.6875 9.6875 l 1
 51.1875 9.6875 l 1
 262.312 642.875 l 1
 262.312 647.562 l 1
 263.906 647.562 l 1
 264.375 649.062 l 1xe8
EndSplineSet
Validated: 524289
EndChar

StartChar: Egrave
Encoding: 200 200 76
Width: 470
VWidth: 0
Flags: W
HStem: 0 117.375<191.375 404> 265.5 117.75<191.375 350.75> 531.375 117.75<191.375 404> 705.75 57.75<69 399.375>
VStem: 74 117.375<117.375 265.5 383.25 531.375> 74 330<0 117.375 531.375 649.125 705.75 763.5>
LayerCount: 2
Fore
SplineSet
69 763.5 m 5xf0
 74.625 763.5 l 5
 80.25 763.5 l 5
 393.75 763.5 l 5
 399.375 763.5 l 5
 399.375 757.875 l 5
 399.375 717 l 5
 399.375 705.75 l 5
 393.75 705.75 l 5
 80.25 705.75 l 5
 74.625 705.75 l 5
 69 705.75 l 5
 69 711.375 l 5
 69 717 l 5
 69 752.25 l 5
 69 757.875 l 5
 69 763.5 l 5xf0
74 649.125 m 1xf4
 79.625 649.125 l 1
 85.25 649.125 l 1
 185.75 649.125 l 1
 191.375 649.125 l 1xf8
 398.375 649.125 l 1
 404 649.125 l 1
 404 643.5 l 1
 404 542.625 l 1
 404 531.375 l 1xf4
 398.375 531.375 l 1
 191.375 531.375 l 1
 191.375 383.25 l 1
 345.125 383.25 l 1
 350.75 383.25 l 1
 350.75 377.625 l 1
 350.75 276.75 l 1
 350.75 265.5 l 1
 345.125 265.5 l 1
 191.375 265.5 l 1
 191.375 117.375 l 1xf8
 398.375 117.375 l 1
 404 117.375 l 1
 404 111.75 l 1
 404 11.25 l 1
 404 0 l 1
 398.375 0 l 1
 185.75 0 l 1
 85.25 0 l 1
 79.625 0 l 1
 74 0 l 1
 74 5.625 l 1
 74 11.25 l 1
 74 637.875 l 1
 74 643.5 l 1
 74 649.125 l 1xf4
EndSplineSet
Validated: 524289
EndChar

StartChar: Eacute
Encoding: 201 201 77
Width: 470
VWidth: 0
Flags: W
HStem: 0 117.375<191.375 404> 265.5 117.75<191.375 350.75> 531.375 117.75<191.375 404> 705.75 57.75<69 399.375>
VStem: 74 117.375<117.375 265.5 383.25 531.375> 74 330<0 117.375 531.375 649.125 705.75 763.5>
LayerCount: 2
Fore
SplineSet
69 763.5 m 1xf0
 74.625 763.5 l 1
 80.25 763.5 l 1
 393.75 763.5 l 1
 399.375 763.5 l 1
 399.375 757.875 l 1
 399.375 717 l 1
 399.375 705.75 l 1
 393.75 705.75 l 1
 80.25 705.75 l 1
 74.625 705.75 l 1
 69 705.75 l 1
 69 711.375 l 1
 69 717 l 1
 69 752.25 l 1
 69 757.875 l 1
 69 763.5 l 1xf0
74 649.125 m 1xf4
 79.625 649.125 l 1
 85.25 649.125 l 1
 185.75 649.125 l 1
 191.375 649.125 l 1xf8
 398.375 649.125 l 1
 404 649.125 l 1
 404 643.5 l 1
 404 542.625 l 1
 404 531.375 l 1xf4
 398.375 531.375 l 1
 191.375 531.375 l 1
 191.375 383.25 l 1
 345.125 383.25 l 1
 350.75 383.25 l 1
 350.75 377.625 l 1
 350.75 276.75 l 1
 350.75 265.5 l 1
 345.125 265.5 l 1
 191.375 265.5 l 1
 191.375 117.375 l 1xf8
 398.375 117.375 l 1
 404 117.375 l 1
 404 111.75 l 1
 404 11.25 l 1
 404 0 l 1
 398.375 0 l 1
 185.75 0 l 1
 85.25 0 l 1
 79.625 0 l 1
 74 0 l 1
 74 5.625 l 1
 74 11.25 l 1
 74 637.875 l 1
 74 643.5 l 1
 74 649.125 l 1xf4
EndSplineSet
Validated: 524289
EndChar

StartChar: Ecircumflex
Encoding: 202 202 78
Width: 470
VWidth: 0
Flags: W
HStem: 0 117.375<191.375 404> 265.5 117.75<191.375 350.75> 531.375 117.75<191.375 404> 705.75 57.75<69 399.375>
VStem: 74 117.375<117.375 265.5 383.25 531.375> 74 330<0 117.375 531.375 649.125 705.75 763.5>
LayerCount: 2
Fore
SplineSet
69 763.5 m 1xf0
 74.625 763.5 l 1
 80.25 763.5 l 1
 393.75 763.5 l 1
 399.375 763.5 l 1
 399.375 757.875 l 1
 399.375 717 l 1
 399.375 705.75 l 1
 393.75 705.75 l 1
 80.25 705.75 l 1
 74.625 705.75 l 1
 69 705.75 l 1
 69 711.375 l 1
 69 717 l 1
 69 752.25 l 1
 69 757.875 l 1
 69 763.5 l 1xf0
74 649.125 m 1xf4
 79.625 649.125 l 1
 85.25 649.125 l 1
 185.75 649.125 l 1
 191.375 649.125 l 1xf8
 398.375 649.125 l 1
 404 649.125 l 1
 404 643.5 l 1
 404 542.625 l 1
 404 531.375 l 1xf4
 398.375 531.375 l 1
 191.375 531.375 l 1
 191.375 383.25 l 1
 345.125 383.25 l 1
 350.75 383.25 l 1
 350.75 377.625 l 1
 350.75 276.75 l 1
 350.75 265.5 l 1
 345.125 265.5 l 1
 191.375 265.5 l 1
 191.375 117.375 l 1xf8
 398.375 117.375 l 1
 404 117.375 l 1
 404 111.75 l 1
 404 11.25 l 1
 404 0 l 1
 398.375 0 l 1
 185.75 0 l 1
 85.25 0 l 1
 79.625 0 l 1
 74 0 l 1
 74 5.625 l 1
 74 11.25 l 1
 74 637.875 l 1
 74 643.5 l 1
 74 649.125 l 1xf4
EndSplineSet
Validated: 524289
EndChar

StartChar: Edieresis
Encoding: 203 203 79
Width: 470
VWidth: 0
Flags: W
HStem: 0 117.375<191.375 404> 265.5 117.75<191.375 350.75> 531.375 117.75<191.375 404> 705.75 57.75<69 399.375>
VStem: 74 117.375<117.375 265.5 383.25 531.375> 74 330<0 117.375 531.375 649.125 705.75 763.5>
LayerCount: 2
Fore
SplineSet
69 763.5 m 5xf0
 74.625 763.5 l 5
 80.25 763.5 l 5
 393.75 763.5 l 5
 399.375 763.5 l 5
 399.375 757.875 l 5
 399.375 717 l 5
 399.375 705.75 l 5
 393.75 705.75 l 5
 80.25 705.75 l 5
 74.625 705.75 l 5
 69 705.75 l 5
 69 711.375 l 5
 69 717 l 5
 69 752.25 l 5
 69 757.875 l 5
 69 763.5 l 5xf0
74 649.125 m 1xf4
 79.625 649.125 l 1
 85.25 649.125 l 1
 185.75 649.125 l 1
 191.375 649.125 l 1xf8
 398.375 649.125 l 1
 404 649.125 l 1
 404 643.5 l 1
 404 542.625 l 1
 404 531.375 l 1xf4
 398.375 531.375 l 1
 191.375 531.375 l 1
 191.375 383.25 l 1
 345.125 383.25 l 1
 350.75 383.25 l 1
 350.75 377.625 l 1
 350.75 276.75 l 1
 350.75 265.5 l 1
 345.125 265.5 l 1
 191.375 265.5 l 1
 191.375 117.375 l 1xf8
 398.375 117.375 l 1
 404 117.375 l 1
 404 111.75 l 1
 404 11.25 l 1
 404 0 l 1
 398.375 0 l 1
 185.75 0 l 1
 85.25 0 l 1
 79.625 0 l 1
 74 0 l 1
 74 5.625 l 1
 74 11.25 l 1
 74 637.875 l 1
 74 643.5 l 1
 74 649.125 l 1xf4
EndSplineSet
Validated: 524289
EndChar

StartChar: Ograve
Encoding: 210 210 80
Width: 765
VWidth: 0
Flags: W
HStem: 0 117.375<289.438 468.049> 531.375 117.375<289.438 468.049> 705.75 57.75<216.625 547>
VStem: 54 117.75<235.075 413.674> 585.75 117.375<235.076 413.673>
LayerCount: 2
Fore
SplineSet
216.625 763.5 m 5
 222.25 763.5 l 5
 227.875 763.5 l 5
 541.375 763.5 l 5
 547 763.5 l 5
 547 757.875 l 5
 547 717 l 5
 547 705.75 l 5
 541.375 705.75 l 5
 227.875 705.75 l 5
 222.25 705.75 l 5
 216.625 705.75 l 5
 216.625 711.375 l 5
 216.625 717 l 5
 216.625 752.25 l 5
 216.625 757.875 l 5
 216.625 763.5 l 5
378.75 531.375 m 0
 264.419 531.375 171.75 438.706 171.75 324.375 c 0
 171.75 210.041 264.419 117.375 378.75 117.375 c 0
 493.084 117.375 585.75 210.041 585.75 324.375 c 0
 585.75 438.706 493.084 531.375 378.75 531.375 c 0
378.75 648.75 m 0
 558.032 648.75 703.125 503.657 703.125 324.375 c 0
 703.125 145.093 558.032 0 378.75 0 c 0
 199.471 0 54 145.084 54 324.375 c 0
 54 503.663 199.471 648.75 378.75 648.75 c 0
EndSplineSet
Validated: 524289
EndChar

StartChar: Oacute
Encoding: 211 211 81
Width: 765
VWidth: 0
Flags: W
HStem: 0 117.375<289.438 468.049> 531.375 117.375<289.438 468.049> 705.75 57.75<216.625 547>
VStem: 54 117.75<235.075 413.674> 585.75 117.375<235.076 413.673>
LayerCount: 2
Fore
SplineSet
216.625 763.5 m 5
 222.25 763.5 l 5
 227.875 763.5 l 5
 541.375 763.5 l 5
 547 763.5 l 5
 547 757.875 l 5
 547 717 l 5
 547 705.75 l 5
 541.375 705.75 l 5
 227.875 705.75 l 5
 222.25 705.75 l 5
 216.625 705.75 l 5
 216.625 711.375 l 5
 216.625 717 l 5
 216.625 752.25 l 5
 216.625 757.875 l 5
 216.625 763.5 l 5
378.75 531.375 m 0
 264.419 531.375 171.75 438.706 171.75 324.375 c 0
 171.75 210.041 264.419 117.375 378.75 117.375 c 0
 493.084 117.375 585.75 210.041 585.75 324.375 c 0
 585.75 438.706 493.084 531.375 378.75 531.375 c 0
378.75 648.75 m 0
 558.032 648.75 703.125 503.657 703.125 324.375 c 0
 703.125 145.093 558.032 0 378.75 0 c 0
 199.471 0 54 145.084 54 324.375 c 0
 54 503.663 199.471 648.75 378.75 648.75 c 0
EndSplineSet
Validated: 524289
EndChar

StartChar: Ocircumflex
Encoding: 212 212 82
Width: 765
VWidth: 0
Flags: W
HStem: 0 117.375<289.438 468.049> 531.375 117.375<289.438 468.049> 705.75 57.75<216.625 547>
VStem: 54 117.75<235.075 413.674> 585.75 117.375<235.076 413.673>
LayerCount: 2
Fore
SplineSet
216.625 763.5 m 5
 222.25 763.5 l 5
 227.875 763.5 l 5
 541.375 763.5 l 5
 547 763.5 l 5
 547 757.875 l 5
 547 717 l 5
 547 705.75 l 5
 541.375 705.75 l 5
 227.875 705.75 l 5
 222.25 705.75 l 5
 216.625 705.75 l 5
 216.625 711.375 l 5
 216.625 717 l 5
 216.625 752.25 l 5
 216.625 757.875 l 5
 216.625 763.5 l 5
378.75 531.375 m 0
 264.419 531.375 171.75 438.706 171.75 324.375 c 0
 171.75 210.041 264.419 117.375 378.75 117.375 c 0
 493.084 117.375 585.75 210.041 585.75 324.375 c 0
 585.75 438.706 493.084 531.375 378.75 531.375 c 0
378.75 648.75 m 0
 558.032 648.75 703.125 503.657 703.125 324.375 c 0
 703.125 145.093 558.032 0 378.75 0 c 0
 199.471 0 54 145.084 54 324.375 c 0
 54 503.663 199.471 648.75 378.75 648.75 c 0
EndSplineSet
Validated: 524289
EndChar

StartChar: Otilde
Encoding: 213 213 83
Width: 765
VWidth: 0
Flags: W
HStem: 0 117.375<289.438 468.049> 531.375 117.375<289.438 468.049> 705.75 57.75<216.625 547>
VStem: 54 117.75<235.075 413.674> 585.75 117.375<235.076 413.673>
LayerCount: 2
Fore
SplineSet
216.625 763.5 m 5
 222.25 763.5 l 5
 227.875 763.5 l 5
 541.375 763.5 l 5
 547 763.5 l 5
 547 757.875 l 5
 547 717 l 5
 547 705.75 l 5
 541.375 705.75 l 5
 227.875 705.75 l 5
 222.25 705.75 l 5
 216.625 705.75 l 5
 216.625 711.375 l 5
 216.625 717 l 5
 216.625 752.25 l 5
 216.625 757.875 l 5
 216.625 763.5 l 5
378.75 531.375 m 0
 264.419 531.375 171.75 438.706 171.75 324.375 c 0
 171.75 210.041 264.419 117.375 378.75 117.375 c 0
 493.084 117.375 585.75 210.041 585.75 324.375 c 0
 585.75 438.706 493.084 531.375 378.75 531.375 c 0
378.75 648.75 m 0
 558.032 648.75 703.125 503.657 703.125 324.375 c 0
 703.125 145.093 558.032 0 378.75 0 c 0
 199.471 0 54 145.084 54 324.375 c 0
 54 503.663 199.471 648.75 378.75 648.75 c 0
EndSplineSet
Validated: 524289
EndChar

StartChar: Odieresis
Encoding: 214 214 84
Width: 765
VWidth: 0
Flags: W
HStem: 0 117.375<289.438 468.049> 531.375 117.375<289.438 468.049> 705.75 57.75<216.625 547>
VStem: 54 117.75<235.075 413.674> 585.75 117.375<235.076 413.673>
LayerCount: 2
Fore
SplineSet
216.625 763.5 m 5
 222.25 763.5 l 5
 227.875 763.5 l 5
 541.375 763.5 l 5
 547 763.5 l 5
 547 757.875 l 5
 547 717 l 5
 547 705.75 l 5
 541.375 705.75 l 5
 227.875 705.75 l 5
 222.25 705.75 l 5
 216.625 705.75 l 5
 216.625 711.375 l 5
 216.625 717 l 5
 216.625 752.25 l 5
 216.625 757.875 l 5
 216.625 763.5 l 5
378.75 531.375 m 0
 264.419 531.375 171.75 438.706 171.75 324.375 c 0
 171.75 210.041 264.419 117.375 378.75 117.375 c 0
 493.084 117.375 585.75 210.041 585.75 324.375 c 0
 585.75 438.706 493.084 531.375 378.75 531.375 c 0
378.75 648.75 m 0
 558.032 648.75 703.125 503.657 703.125 324.375 c 0
 703.125 145.093 558.032 0 378.75 0 c 0
 199.471 0 54 145.084 54 324.375 c 0
 54 503.663 199.471 648.75 378.75 648.75 c 0
EndSplineSet
Validated: 524289
EndChar

StartChar: Ugrave
Encoding: 217 217 85
Width: 632
VWidth: 0
Flags: W
HStem: 0 117.375<244.799 385.018> 629.125 20G<69 186.75 441 558.75> 629.125 20G<69 186.75 441 558.75> 705.75 57.75<145.625 476>
VStem: 69 117.75<177.777 250.5 250.5 649.125> 441 117.75<176.891 236.25 236.25 649.125>
LayerCount: 2
Fore
SplineSet
145.625 763.5 m 5x9c
 151.25 763.5 l 5
 156.875 763.5 l 5
 470.375 763.5 l 5
 476 763.5 l 5
 476 757.875 l 5
 476 717 l 5
 476 705.75 l 5
 470.375 705.75 l 5
 156.875 705.75 l 5
 151.25 705.75 l 5
 145.625 705.75 l 5
 145.625 711.375 l 5
 145.625 717 l 5
 145.625 752.25 l 5
 145.625 757.875 l 5
 145.625 763.5 l 5x9c
69 649.125 m 1xdc
 74.625 649.125 l 1
 80.25 649.125 l 1
 181.125 649.125 l 1
 186.75 649.125 l 1
 186.75 643.5 l 1
 186.75 250.5 l 1
 186.75 244.875 l 2
 186.75 174.398 243.416 117.375 313.875 117.375 c 0
 383.941 117.375 441 174.416 441 244.875 c 2
 441 637.875 l 1
 441 643.5 l 1
 441 649.125 l 1
 446.625 649.125 l 1
 452.25 649.125 l 1
 553.125 649.125 l 1
 558.75 649.125 l 1
 558.75 643.5 l 1
 558.75 250.5 l 1
 558.75 244.875 l 1
 558.75 236.25 l 1
 558.562 236.25 l 1
 554.039 104.824 446.045 0 313.875 0 c 0
 178.84 0 69 109.462 69 244.875 c 2
 69 248.25 l 1
 69 250.5 l 1
 69 637.875 l 1
 69 643.5 l 1
 69 649.125 l 1xdc
EndSplineSet
Validated: 524289
EndChar

StartChar: Uacute
Encoding: 218 218 86
Width: 632
VWidth: 0
Flags: W
HStem: 0 117.375<244.799 385.018> 629.125 20G<69 186.75 441 558.75> 629.125 20G<69 186.75 441 558.75> 705.75 57.75<145.625 476>
VStem: 69 117.75<177.777 250.5 250.5 649.125> 441 117.75<176.891 236.25 236.25 649.125>
LayerCount: 2
Fore
SplineSet
145.625 763.5 m 5x9c
 151.25 763.5 l 5
 156.875 763.5 l 5
 470.375 763.5 l 5
 476 763.5 l 5
 476 757.875 l 5
 476 717 l 5
 476 705.75 l 5
 470.375 705.75 l 5
 156.875 705.75 l 5
 151.25 705.75 l 5
 145.625 705.75 l 5
 145.625 711.375 l 5
 145.625 717 l 5
 145.625 752.25 l 5
 145.625 757.875 l 5
 145.625 763.5 l 5x9c
69 649.125 m 1xdc
 74.625 649.125 l 1
 80.25 649.125 l 1
 181.125 649.125 l 1
 186.75 649.125 l 1
 186.75 643.5 l 1
 186.75 250.5 l 1
 186.75 244.875 l 2
 186.75 174.398 243.416 117.375 313.875 117.375 c 0
 383.941 117.375 441 174.416 441 244.875 c 2
 441 637.875 l 1
 441 643.5 l 1
 441 649.125 l 1
 446.625 649.125 l 1
 452.25 649.125 l 1
 553.125 649.125 l 1
 558.75 649.125 l 1
 558.75 643.5 l 1
 558.75 250.5 l 1
 558.75 244.875 l 1
 558.75 236.25 l 1
 558.562 236.25 l 1
 554.039 104.824 446.045 0 313.875 0 c 0
 178.84 0 69 109.462 69 244.875 c 2
 69 248.25 l 1
 69 250.5 l 1
 69 637.875 l 1
 69 643.5 l 1
 69 649.125 l 1xdc
EndSplineSet
Validated: 524289
EndChar

StartChar: Ucircumflex
Encoding: 219 219 87
Width: 632
VWidth: 0
Flags: W
HStem: 0 117.375<244.799 385.018> 629.125 20G<69 186.75 441 558.75> 629.125 20G<69 186.75 441 558.75> 705.75 57.75<145.625 476>
VStem: 69 117.75<177.777 250.5 250.5 649.125> 441 117.75<176.891 236.25 236.25 649.125>
LayerCount: 2
Fore
SplineSet
145.625 763.5 m 5x9c
 151.25 763.5 l 5
 156.875 763.5 l 5
 470.375 763.5 l 5
 476 763.5 l 5
 476 757.875 l 5
 476 717 l 5
 476 705.75 l 5
 470.375 705.75 l 5
 156.875 705.75 l 5
 151.25 705.75 l 5
 145.625 705.75 l 5
 145.625 711.375 l 5
 145.625 717 l 5
 145.625 752.25 l 5
 145.625 757.875 l 5
 145.625 763.5 l 5x9c
69 649.125 m 1xdc
 74.625 649.125 l 1
 80.25 649.125 l 1
 181.125 649.125 l 1
 186.75 649.125 l 1
 186.75 643.5 l 1
 186.75 250.5 l 1
 186.75 244.875 l 2
 186.75 174.398 243.416 117.375 313.875 117.375 c 0
 383.941 117.375 441 174.416 441 244.875 c 2
 441 637.875 l 1
 441 643.5 l 1
 441 649.125 l 1
 446.625 649.125 l 1
 452.25 649.125 l 1
 553.125 649.125 l 1
 558.75 649.125 l 1
 558.75 643.5 l 1
 558.75 250.5 l 1
 558.75 244.875 l 1
 558.75 236.25 l 1
 558.562 236.25 l 1
 554.039 104.824 446.045 0 313.875 0 c 0
 178.84 0 69 109.462 69 244.875 c 2
 69 248.25 l 1
 69 250.5 l 1
 69 637.875 l 1
 69 643.5 l 1
 69 649.125 l 1xdc
EndSplineSet
Validated: 524289
EndChar

StartChar: Udieresis
Encoding: 220 220 88
Width: 632
VWidth: 0
Flags: W
HStem: 0 117.375<244.799 385.018> 629.125 20G<69 186.75 441 558.75> 629.125 20G<69 186.75 441 558.75> 705.75 57.75<145.625 476>
VStem: 69 117.75<177.777 250.5 250.5 649.125> 441 117.75<176.891 236.25 236.25 649.125>
LayerCount: 2
Fore
SplineSet
145.625 763.5 m 5x9c
 151.25 763.5 l 5
 156.875 763.5 l 5
 470.375 763.5 l 5
 476 763.5 l 5
 476 757.875 l 5
 476 717 l 5
 476 705.75 l 5
 470.375 705.75 l 5
 156.875 705.75 l 5
 151.25 705.75 l 5
 145.625 705.75 l 5
 145.625 711.375 l 5
 145.625 717 l 5
 145.625 752.25 l 5
 145.625 757.875 l 5
 145.625 763.5 l 5x9c
69 649.125 m 1xdc
 74.625 649.125 l 1
 80.25 649.125 l 1
 181.125 649.125 l 1
 186.75 649.125 l 1
 186.75 643.5 l 1
 186.75 250.5 l 1
 186.75 244.875 l 2
 186.75 174.398 243.416 117.375 313.875 117.375 c 0
 383.941 117.375 441 174.416 441 244.875 c 2
 441 637.875 l 1
 441 643.5 l 1
 441 649.125 l 1
 446.625 649.125 l 1
 452.25 649.125 l 1
 553.125 649.125 l 1
 558.75 649.125 l 1
 558.75 643.5 l 1
 558.75 250.5 l 1
 558.75 244.875 l 1
 558.75 236.25 l 1
 558.562 236.25 l 1
 554.039 104.824 446.045 0 313.875 0 c 0
 178.84 0 69 109.462 69 244.875 c 2
 69 248.25 l 1
 69 250.5 l 1
 69 637.875 l 1
 69 643.5 l 1
 69 649.125 l 1xdc
EndSplineSet
Validated: 524289
EndChar

StartChar: aacute
Encoding: 225 225 89
Width: 642
VWidth: 0
Flags: W
HStem: -1.5625 11.25<49.6875 51.1875 590.719 592.312> 157.812 117.376<258 384.281> 629.062 20G<263.906 268.875 373.125 378.188> 629.062 20G<263.906 268.875 373.125 378.188> 706 57.75<149.812 480.188>
LayerCount: 2
Fore
SplineSet
149.812 763.75 m 5xc8
 155.438 763.75 l 5
 161.062 763.75 l 5
 474.562 763.75 l 5
 480.188 763.75 l 5
 480.188 758.125 l 5
 480.188 717.25 l 5
 480.188 706 l 5
 474.562 706 l 5
 161.062 706 l 5
 155.438 706 l 5
 149.812 706 l 5
 149.812 711.625 l 5
 149.812 717.25 l 5
 149.812 752.5 l 5
 149.812 758.125 l 5
 149.812 763.75 l 5xc8
321.094 464.562 m 1
 258 275.188 l 1
 267.938 275.188 l 1
 374.062 275.188 l 1
 384.281 275.188 l 1
 321.094 464.562 l 1
264.375 649.062 m 1xe8
 268.875 647.562 l 1
 373.125 647.562 l 1
 377.625 649.062 l 1
 378.188 647.562 l 1
 379.688 647.562 l 1
 379.688 643.156 l 1
 590.719 9.6875 l 1
 592.312 9.6875 l 1
 592.312 5 l 1
 593.812 0.40625 l 1
 592.312 -0.0625 l 1
 592.312 -1.5625 l 1
 587.719 -1.5625 l 1
 583.125 -3.0625 l 1
 582.656 -1.5625 l 1
 481.5 -1.5625 l 1
 477 -3.0625 l 1
 476.531 -1.5625 l 1
 474.938 -1.5625 l 1
 474.938 3.21875 l 1
 423.375 157.812 l 1
 218.906 157.812 l 1
 167.438 3.5 l 1
 167.438 -1.5625 l 1
 165.844 -1.5625 l 1
 165.376 -3.0625 l 1
 160.876 -1.5625 l 1
 59.4375 -1.5625 l 1
 58.875 -3.0625 l 1
 54.375 -1.5625 l 1
 49.6875 -1.5625 l 1
 49.6875 0.03125 l 1
 48.1875 0.5 l 1
 49.6875 5.28125 l 1
 49.6875 9.6875 l 1
 51.1875 9.6875 l 1
 262.312 642.875 l 1
 262.312 647.562 l 1
 263.906 647.562 l 1
 264.375 649.062 l 1xe8
EndSplineSet
Validated: 524289
EndChar

StartChar: acircumflex
Encoding: 226 226 90
Width: 642
VWidth: 0
Flags: W
HStem: -1.5625 11.25<49.6875 51.1875 590.719 592.312> 157.812 117.376<258 384.281> 629.062 20G<263.906 268.875 373.125 378.188> 629.062 20G<263.906 268.875 373.125 378.188> 706 57.75<149.812 480.188>
LayerCount: 2
Fore
SplineSet
149.812 763.75 m 1xc8
 155.438 763.75 l 1
 161.062 763.75 l 1
 474.562 763.75 l 1
 480.188 763.75 l 1
 480.188 758.125 l 1
 480.188 717.25 l 1
 480.188 706 l 1
 474.562 706 l 1
 161.062 706 l 1
 155.438 706 l 1
 149.812 706 l 1
 149.812 711.625 l 1
 149.812 717.25 l 1
 149.812 752.5 l 1
 149.812 758.125 l 1
 149.812 763.75 l 1xc8
321.094 464.562 m 1
 258 275.188 l 1
 267.938 275.188 l 1
 374.062 275.188 l 1
 384.281 275.188 l 1
 321.094 464.562 l 1
264.375 649.062 m 1xe8
 268.875 647.562 l 1
 373.125 647.562 l 1
 377.625 649.062 l 1
 378.188 647.562 l 1
 379.688 647.562 l 1
 379.688 643.156 l 1
 590.719 9.6875 l 1
 592.312 9.6875 l 1
 592.312 5 l 1
 593.812 0.40625 l 1
 592.312 -0.0625 l 1
 592.312 -1.5625 l 1
 587.719 -1.5625 l 1
 583.125 -3.0625 l 1
 582.656 -1.5625 l 1
 481.5 -1.5625 l 1
 477 -3.0625 l 1
 476.531 -1.5625 l 1
 474.938 -1.5625 l 1
 474.938 3.21875 l 1
 423.375 157.812 l 1
 218.906 157.812 l 1
 167.438 3.5 l 1
 167.438 -1.5625 l 1
 165.844 -1.5625 l 1
 165.376 -3.0625 l 1
 160.876 -1.5625 l 1
 59.4375 -1.5625 l 1
 58.875 -3.0625 l 1
 54.375 -1.5625 l 1
 49.6875 -1.5625 l 1
 49.6875 0.03125 l 1
 48.1875 0.5 l 1
 49.6875 5.28125 l 1
 49.6875 9.6875 l 1
 51.1875 9.6875 l 1
 262.312 642.875 l 1
 262.312 647.562 l 1
 263.906 647.562 l 1
 264.375 649.062 l 1xe8
EndSplineSet
Validated: 524289
EndChar

StartChar: atilde
Encoding: 227 227 91
Width: 642
VWidth: 0
Flags: W
HStem: -1.5625 11.25<49.6875 51.1875 590.719 592.312> 157.812 117.376<258 384.281> 629.062 20G<263.906 268.875 373.125 378.188> 629.062 20G<263.906 268.875 373.125 378.188> 706 57.75<149.812 480.188>
LayerCount: 2
Fore
SplineSet
149.812 763.75 m 1xc8
 155.438 763.75 l 1
 161.062 763.75 l 1
 474.562 763.75 l 1
 480.188 763.75 l 1
 480.188 758.125 l 1
 480.188 717.25 l 1
 480.188 706 l 1
 474.562 706 l 1
 161.062 706 l 1
 155.438 706 l 1
 149.812 706 l 1
 149.812 711.625 l 1
 149.812 717.25 l 1
 149.812 752.5 l 1
 149.812 758.125 l 1
 149.812 763.75 l 1xc8
321.094 464.562 m 1
 258 275.188 l 1
 267.938 275.188 l 1
 374.062 275.188 l 1
 384.281 275.188 l 1
 321.094 464.562 l 1
264.375 649.062 m 1xe8
 268.875 647.562 l 1
 373.125 647.562 l 1
 377.625 649.062 l 1
 378.188 647.562 l 1
 379.688 647.562 l 1
 379.688 643.156 l 1
 590.719 9.6875 l 1
 592.312 9.6875 l 1
 592.312 5 l 1
 593.812 0.40625 l 1
 592.312 -0.0625 l 1
 592.312 -1.5625 l 1
 587.719 -1.5625 l 1
 583.125 -3.0625 l 1
 582.656 -1.5625 l 1
 481.5 -1.5625 l 1
 477 -3.0625 l 1
 476.531 -1.5625 l 1
 474.938 -1.5625 l 1
 474.938 3.21875 l 1
 423.375 157.812 l 1
 218.906 157.812 l 1
 167.438 3.5 l 1
 167.438 -1.5625 l 1
 165.844 -1.5625 l 1
 165.376 -3.0625 l 1
 160.876 -1.5625 l 1
 59.4375 -1.5625 l 1
 58.875 -3.0625 l 1
 54.375 -1.5625 l 1
 49.6875 -1.5625 l 1
 49.6875 0.03125 l 1
 48.1875 0.5 l 1
 49.6875 5.28125 l 1
 49.6875 9.6875 l 1
 51.1875 9.6875 l 1
 262.312 642.875 l 1
 262.312 647.562 l 1
 263.906 647.562 l 1
 264.375 649.062 l 1xe8
EndSplineSet
Validated: 524289
EndChar

StartChar: adieresis
Encoding: 228 228 92
Width: 642
VWidth: 0
Flags: W
HStem: -1.5625 11.25<49.6875 51.1875 590.719 592.312> 157.812 117.376<258 384.281> 629.062 20G<263.906 268.875 373.125 378.188> 629.062 20G<263.906 268.875 373.125 378.188> 706 57.75<149.812 480.188>
LayerCount: 2
Fore
SplineSet
149.812 763.75 m 1xc8
 155.438 763.75 l 1
 161.062 763.75 l 1
 474.562 763.75 l 1
 480.188 763.75 l 1
 480.188 758.125 l 1
 480.188 717.25 l 1
 480.188 706 l 1
 474.562 706 l 1
 161.062 706 l 1
 155.438 706 l 1
 149.812 706 l 1
 149.812 711.625 l 1
 149.812 717.25 l 1
 149.812 752.5 l 1
 149.812 758.125 l 1
 149.812 763.75 l 1xc8
321.094 464.562 m 1
 258 275.188 l 1
 267.938 275.188 l 1
 374.062 275.188 l 1
 384.281 275.188 l 1
 321.094 464.562 l 1
264.375 649.062 m 1xe8
 268.875 647.562 l 1
 373.125 647.562 l 1
 377.625 649.062 l 1
 378.188 647.562 l 1
 379.688 647.562 l 1
 379.688 643.156 l 1
 590.719 9.6875 l 1
 592.312 9.6875 l 1
 592.312 5 l 1
 593.812 0.40625 l 1
 592.312 -0.0625 l 1
 592.312 -1.5625 l 1
 587.719 -1.5625 l 1
 583.125 -3.0625 l 1
 582.656 -1.5625 l 1
 481.5 -1.5625 l 1
 477 -3.0625 l 1
 476.531 -1.5625 l 1
 474.938 -1.5625 l 1
 474.938 3.21875 l 1
 423.375 157.812 l 1
 218.906 157.812 l 1
 167.438 3.5 l 1
 167.438 -1.5625 l 1
 165.844 -1.5625 l 1
 165.376 -3.0625 l 1
 160.876 -1.5625 l 1
 59.4375 -1.5625 l 1
 58.875 -3.0625 l 1
 54.375 -1.5625 l 1
 49.6875 -1.5625 l 1
 49.6875 0.03125 l 1
 48.1875 0.5 l 1
 49.6875 5.28125 l 1
 49.6875 9.6875 l 1
 51.1875 9.6875 l 1
 262.312 642.875 l 1
 262.312 647.562 l 1
 263.906 647.562 l 1
 264.375 649.062 l 1xe8
EndSplineSet
Validated: 524289
EndChar

StartChar: aring
Encoding: 229 229 93
Width: 642
VWidth: 0
Flags: W
HStem: -1.5625 11.25<49.6875 51.1875 590.719 592.312> 157.812 117.376<258 384.281> 629.062 20G<263.906 268.875 373.125 378.188> 629.062 20G<263.906 268.875 373.125 378.188> 706 57.75<149.812 480.188>
LayerCount: 2
Fore
SplineSet
149.812 763.75 m 1xc8
 155.438 763.75 l 1
 161.062 763.75 l 1
 474.562 763.75 l 1
 480.188 763.75 l 1
 480.188 758.125 l 1
 480.188 717.25 l 1
 480.188 706 l 1
 474.562 706 l 1
 161.062 706 l 1
 155.438 706 l 1
 149.812 706 l 1
 149.812 711.625 l 1
 149.812 717.25 l 1
 149.812 752.5 l 1
 149.812 758.125 l 1
 149.812 763.75 l 1xc8
321.094 464.562 m 1
 258 275.188 l 1
 267.938 275.188 l 1
 374.062 275.188 l 1
 384.281 275.188 l 1
 321.094 464.562 l 1
264.375 649.062 m 1xe8
 268.875 647.562 l 1
 373.125 647.562 l 1
 377.625 649.062 l 1
 378.188 647.562 l 1
 379.688 647.562 l 1
 379.688 643.156 l 1
 590.719 9.6875 l 1
 592.312 9.6875 l 1
 592.312 5 l 1
 593.812 0.40625 l 1
 592.312 -0.0625 l 1
 592.312 -1.5625 l 1
 587.719 -1.5625 l 1
 583.125 -3.0625 l 1
 582.656 -1.5625 l 1
 481.5 -1.5625 l 1
 477 -3.0625 l 1
 476.531 -1.5625 l 1
 474.938 -1.5625 l 1
 474.938 3.21875 l 1
 423.375 157.812 l 1
 218.906 157.812 l 1
 167.438 3.5 l 1
 167.438 -1.5625 l 1
 165.844 -1.5625 l 1
 165.376 -3.0625 l 1
 160.876 -1.5625 l 1
 59.4375 -1.5625 l 1
 58.875 -3.0625 l 1
 54.375 -1.5625 l 1
 49.6875 -1.5625 l 1
 49.6875 0.03125 l 1
 48.1875 0.5 l 1
 49.6875 5.28125 l 1
 49.6875 9.6875 l 1
 51.1875 9.6875 l 1
 262.312 642.875 l 1
 262.312 647.562 l 1
 263.906 647.562 l 1
 264.375 649.062 l 1xe8
EndSplineSet
Validated: 524289
EndChar

StartChar: agrave
Encoding: 224 224 94
Width: 642
VWidth: 0
Flags: W
HStem: -1.5625 11.25<49.6875 51.1875 590.719 592.312> 157.812 117.376<258 384.281> 629.062 20G<263.906 268.875 373.125 378.188> 629.062 20G<263.906 268.875 373.125 378.188> 706 57.75<149.812 480.188>
LayerCount: 2
Fore
SplineSet
149.812 763.75 m 1xc8
 155.438 763.75 l 1
 161.062 763.75 l 1
 474.562 763.75 l 1
 480.188 763.75 l 1
 480.188 758.125 l 1
 480.188 717.25 l 1
 480.188 706 l 1
 474.562 706 l 1
 161.062 706 l 1
 155.438 706 l 1
 149.812 706 l 1
 149.812 711.625 l 1
 149.812 717.25 l 1
 149.812 752.5 l 1
 149.812 758.125 l 1
 149.812 763.75 l 1xc8
321.094 464.562 m 1
 258 275.188 l 1
 267.938 275.188 l 1
 374.062 275.188 l 1
 384.281 275.188 l 1
 321.094 464.562 l 1
264.375 649.062 m 1xe8
 268.875 647.562 l 1
 373.125 647.562 l 1
 377.625 649.062 l 1
 378.188 647.562 l 1
 379.688 647.562 l 1
 379.688 643.156 l 1
 590.719 9.6875 l 1
 592.312 9.6875 l 1
 592.312 5 l 1
 593.812 0.40625 l 1
 592.312 -0.0625 l 1
 592.312 -1.5625 l 1
 587.719 -1.5625 l 1
 583.125 -3.0625 l 1
 582.656 -1.5625 l 1
 481.5 -1.5625 l 1
 477 -3.0625 l 1
 476.531 -1.5625 l 1
 474.938 -1.5625 l 1
 474.938 3.21875 l 1
 423.375 157.812 l 1
 218.906 157.812 l 1
 167.438 3.5 l 1
 167.438 -1.5625 l 1
 165.844 -1.5625 l 1
 165.376 -3.0625 l 1
 160.876 -1.5625 l 1
 59.4375 -1.5625 l 1
 58.875 -3.0625 l 1
 54.375 -1.5625 l 1
 49.6875 -1.5625 l 1
 49.6875 0.03125 l 1
 48.1875 0.5 l 1
 49.6875 5.28125 l 1
 49.6875 9.6875 l 1
 51.1875 9.6875 l 1
 262.312 642.875 l 1
 262.312 647.562 l 1
 263.906 647.562 l 1
 264.375 649.062 l 1xe8
EndSplineSet
Validated: 524289
EndChar

StartChar: egrave
Encoding: 232 232 95
Width: 470
VWidth: 0
Flags: W
HStem: 0 117.375<191.375 404> 265.5 117.75<191.375 350.75> 531.375 117.75<191.375 404> 705.75 57.75<69 399.375>
VStem: 74 117.375<117.375 265.5 383.25 531.375> 74 330<0 117.375 531.375 649.125 705.75 763.5>
LayerCount: 2
Fore
SplineSet
69 763.5 m 5xf0
 74.625 763.5 l 5
 80.25 763.5 l 5
 393.75 763.5 l 5
 399.375 763.5 l 5
 399.375 757.875 l 5
 399.375 717 l 5
 399.375 705.75 l 5
 393.75 705.75 l 5
 80.25 705.75 l 5
 74.625 705.75 l 5
 69 705.75 l 5
 69 711.375 l 5
 69 717 l 5
 69 752.25 l 5
 69 757.875 l 5
 69 763.5 l 5xf0
74 649.125 m 1xf4
 79.625 649.125 l 1
 85.25 649.125 l 1
 185.75 649.125 l 1
 191.375 649.125 l 1xf8
 398.375 649.125 l 1
 404 649.125 l 1
 404 643.5 l 1
 404 542.625 l 1
 404 531.375 l 1xf4
 398.375 531.375 l 1
 191.375 531.375 l 1
 191.375 383.25 l 1
 345.125 383.25 l 1
 350.75 383.25 l 1
 350.75 377.625 l 1
 350.75 276.75 l 1
 350.75 265.5 l 1
 345.125 265.5 l 1
 191.375 265.5 l 1
 191.375 117.375 l 1xf8
 398.375 117.375 l 1
 404 117.375 l 1
 404 111.75 l 1
 404 11.25 l 1
 404 0 l 1
 398.375 0 l 1
 185.75 0 l 1
 85.25 0 l 1
 79.625 0 l 1
 74 0 l 1
 74 5.625 l 1
 74 11.25 l 1
 74 637.875 l 1
 74 643.5 l 1
 74 649.125 l 1xf4
EndSplineSet
Validated: 524289
EndChar

StartChar: eacute
Encoding: 233 233 96
Width: 470
VWidth: 0
Flags: W
HStem: 0 117.375<191.375 404> 265.5 117.75<191.375 350.75> 531.375 117.75<191.375 404> 705.75 57.75<69 399.375>
VStem: 74 117.375<117.375 265.5 383.25 531.375> 74 330<0 117.375 531.375 649.125 705.75 763.5>
LayerCount: 2
Fore
SplineSet
69 763.5 m 1xf0
 74.625 763.5 l 1
 80.25 763.5 l 1
 393.75 763.5 l 1
 399.375 763.5 l 1
 399.375 757.875 l 1
 399.375 717 l 1
 399.375 705.75 l 1
 393.75 705.75 l 1
 80.25 705.75 l 1
 74.625 705.75 l 1
 69 705.75 l 1
 69 711.375 l 1
 69 717 l 1
 69 752.25 l 1
 69 757.875 l 1
 69 763.5 l 1xf0
74 649.125 m 1xf4
 79.625 649.125 l 1
 85.25 649.125 l 1
 185.75 649.125 l 1
 191.375 649.125 l 1xf8
 398.375 649.125 l 1
 404 649.125 l 1
 404 643.5 l 1
 404 542.625 l 1
 404 531.375 l 1xf4
 398.375 531.375 l 1
 191.375 531.375 l 1
 191.375 383.25 l 1
 345.125 383.25 l 1
 350.75 383.25 l 1
 350.75 377.625 l 1
 350.75 276.75 l 1
 350.75 265.5 l 1
 345.125 265.5 l 1
 191.375 265.5 l 1
 191.375 117.375 l 1xf8
 398.375 117.375 l 1
 404 117.375 l 1
 404 111.75 l 1
 404 11.25 l 1
 404 0 l 1
 398.375 0 l 1
 185.75 0 l 1
 85.25 0 l 1
 79.625 0 l 1
 74 0 l 1
 74 5.625 l 1
 74 11.25 l 1
 74 637.875 l 1
 74 643.5 l 1
 74 649.125 l 1xf4
EndSplineSet
Validated: 524289
EndChar

StartChar: ecircumflex
Encoding: 234 234 97
Width: 470
VWidth: 0
Flags: W
HStem: 0 117.375<191.375 404> 265.5 117.75<191.375 350.75> 531.375 117.75<191.375 404> 705.75 57.75<69 399.375>
VStem: 74 117.375<117.375 265.5 383.25 531.375> 74 330<0 117.375 531.375 649.125 705.75 763.5>
LayerCount: 2
Fore
SplineSet
69 763.5 m 1xf0
 74.625 763.5 l 1
 80.25 763.5 l 1
 393.75 763.5 l 1
 399.375 763.5 l 1
 399.375 757.875 l 1
 399.375 717 l 1
 399.375 705.75 l 1
 393.75 705.75 l 1
 80.25 705.75 l 1
 74.625 705.75 l 1
 69 705.75 l 1
 69 711.375 l 1
 69 717 l 1
 69 752.25 l 1
 69 757.875 l 1
 69 763.5 l 1xf0
74 649.125 m 1xf4
 79.625 649.125 l 1
 85.25 649.125 l 1
 185.75 649.125 l 1
 191.375 649.125 l 1xf8
 398.375 649.125 l 1
 404 649.125 l 1
 404 643.5 l 1
 404 542.625 l 1
 404 531.375 l 1xf4
 398.375 531.375 l 1
 191.375 531.375 l 1
 191.375 383.25 l 1
 345.125 383.25 l 1
 350.75 383.25 l 1
 350.75 377.625 l 1
 350.75 276.75 l 1
 350.75 265.5 l 1
 345.125 265.5 l 1
 191.375 265.5 l 1
 191.375 117.375 l 1xf8
 398.375 117.375 l 1
 404 117.375 l 1
 404 111.75 l 1
 404 11.25 l 1
 404 0 l 1
 398.375 0 l 1
 185.75 0 l 1
 85.25 0 l 1
 79.625 0 l 1
 74 0 l 1
 74 5.625 l 1
 74 11.25 l 1
 74 637.875 l 1
 74 643.5 l 1
 74 649.125 l 1xf4
EndSplineSet
Validated: 524289
EndChar

StartChar: edieresis
Encoding: 235 235 98
Width: 470
VWidth: 0
Flags: W
HStem: 0 117.375<191.375 404> 265.5 117.75<191.375 350.75> 531.375 117.75<191.375 404> 705.75 57.75<69 399.375>
VStem: 74 117.375<117.375 265.5 383.25 531.375> 74 330<0 117.375 531.375 649.125 705.75 763.5>
LayerCount: 2
Fore
SplineSet
69 763.5 m 1xf0
 74.625 763.5 l 1
 80.25 763.5 l 1
 393.75 763.5 l 1
 399.375 763.5 l 1
 399.375 757.875 l 1
 399.375 717 l 1
 399.375 705.75 l 1
 393.75 705.75 l 1
 80.25 705.75 l 1
 74.625 705.75 l 1
 69 705.75 l 1
 69 711.375 l 1
 69 717 l 1
 69 752.25 l 1
 69 757.875 l 1
 69 763.5 l 1xf0
74 649.125 m 1xf4
 79.625 649.125 l 1
 85.25 649.125 l 1
 185.75 649.125 l 1
 191.375 649.125 l 1xf8
 398.375 649.125 l 1
 404 649.125 l 1
 404 643.5 l 1
 404 542.625 l 1
 404 531.375 l 1xf4
 398.375 531.375 l 1
 191.375 531.375 l 1
 191.375 383.25 l 1
 345.125 383.25 l 1
 350.75 383.25 l 1
 350.75 377.625 l 1
 350.75 276.75 l 1
 350.75 265.5 l 1
 345.125 265.5 l 1
 191.375 265.5 l 1
 191.375 117.375 l 1xf8
 398.375 117.375 l 1
 404 117.375 l 1
 404 111.75 l 1
 404 11.25 l 1
 404 0 l 1
 398.375 0 l 1
 185.75 0 l 1
 85.25 0 l 1
 79.625 0 l 1
 74 0 l 1
 74 5.625 l 1
 74 11.25 l 1
 74 637.875 l 1
 74 643.5 l 1
 74 649.125 l 1xf4
EndSplineSet
Validated: 524289
EndChar

StartChar: Igrave
Encoding: 204 204 99
Width: 268
VWidth: 0
Flags: W
HStem: 1 21G<74 191.75> 1 21G<74 191.75> 629.75 20G<74 191.75> 629.75 20G<74 191.75> 705.75 57.75<74 192.375>
VStem: 74 117.75<1 649.75 705.75 763.5>
LayerCount: 2
Fore
SplineSet
74 763.5 m 1x0c
 79.625 763.5 l 1
 85.25 763.5 l 1
 186.75 763.5 l 1
 192.375 763.5 l 1
 192.375 757.875 l 1
 192.375 717 l 1
 192.375 705.75 l 1
 186.75 705.75 l 1
 85.25 705.75 l 1
 79.625 705.75 l 1
 74 705.75 l 1
 74 711.375 l 1
 74 717 l 1
 74 752.25 l 1
 74 757.875 l 1
 74 763.5 l 1x0c
74 649.75 m 1xac
 79.625 649.75 l 1
 85.25 649.75 l 1
 186.125 649.75 l 1
 191.75 649.75 l 1
 191.75 644.125 l 1
 191.75 12.25 l 1
 191.75 1 l 1
 186.125 1 l 1
 85.25 1 l 1
 79.625 1 l 1
 74 1 l 1
 74 6.625 l 1
 74 12.25 l 1
 74 638.5 l 1
 74 644.125 l 1
 74 649.75 l 1xac
EndSplineSet
Validated: 524289
EndChar

StartChar: Iacute
Encoding: 205 205 100
Width: 268
VWidth: 0
Flags: W
HStem: 1 21G<74 191.75> 1 21G<74 191.75> 629.75 20G<74 191.75> 629.75 20G<74 191.75> 705.75 57.75<74 192.375>
VStem: 74 117.75<1 649.75 705.75 763.5>
LayerCount: 2
Fore
SplineSet
74 763.5 m 1x0c
 79.625 763.5 l 1
 85.25 763.5 l 1
 186.75 763.5 l 1
 192.375 763.5 l 1
 192.375 757.875 l 1
 192.375 717 l 1
 192.375 705.75 l 1
 186.75 705.75 l 1
 85.25 705.75 l 1
 79.625 705.75 l 1
 74 705.75 l 1
 74 711.375 l 1
 74 717 l 1
 74 752.25 l 1
 74 757.875 l 1
 74 763.5 l 1x0c
74 649.75 m 1xac
 79.625 649.75 l 1
 85.25 649.75 l 1
 186.125 649.75 l 1
 191.75 649.75 l 1
 191.75 644.125 l 1
 191.75 12.25 l 1
 191.75 1 l 1
 186.125 1 l 1
 85.25 1 l 1
 79.625 1 l 1
 74 1 l 1
 74 6.625 l 1
 74 12.25 l 1
 74 638.5 l 1
 74 644.125 l 1
 74 649.75 l 1xac
EndSplineSet
Validated: 524289
EndChar

StartChar: Icircumflex
Encoding: 206 206 101
Width: 268
VWidth: 0
Flags: W
HStem: 1 21G<74 191.75> 1 21G<74 191.75> 629.75 20G<74 191.75> 629.75 20G<74 191.75> 705.75 57.75<74 192.375>
VStem: 74 117.75<1 649.75 705.75 763.5>
LayerCount: 2
Fore
SplineSet
74 763.5 m 1x0c
 79.625 763.5 l 1
 85.25 763.5 l 1
 186.75 763.5 l 1
 192.375 763.5 l 1
 192.375 757.875 l 1
 192.375 717 l 1
 192.375 705.75 l 1
 186.75 705.75 l 1
 85.25 705.75 l 1
 79.625 705.75 l 1
 74 705.75 l 1
 74 711.375 l 1
 74 717 l 1
 74 752.25 l 1
 74 757.875 l 1
 74 763.5 l 1x0c
74 649.75 m 1xac
 79.625 649.75 l 1
 85.25 649.75 l 1
 186.125 649.75 l 1
 191.75 649.75 l 1
 191.75 644.125 l 1
 191.75 12.25 l 1
 191.75 1 l 1
 186.125 1 l 1
 85.25 1 l 1
 79.625 1 l 1
 74 1 l 1
 74 6.625 l 1
 74 12.25 l 1
 74 638.5 l 1
 74 644.125 l 1
 74 649.75 l 1xac
EndSplineSet
Validated: 524289
EndChar

StartChar: Idieresis
Encoding: 207 207 102
Width: 268
VWidth: 0
Flags: W
HStem: 1 21G<74 191.75> 1 21G<74 191.75> 629.75 20G<74 191.75> 629.75 20G<74 191.75> 705.75 57.75<74 192.375>
VStem: 74 117.75<1 649.75 705.75 763.5>
LayerCount: 2
Fore
SplineSet
74 763.5 m 1x0c
 79.625 763.5 l 1
 85.25 763.5 l 1
 186.75 763.5 l 1
 192.375 763.5 l 1
 192.375 757.875 l 1
 192.375 717 l 1
 192.375 705.75 l 1
 186.75 705.75 l 1
 85.25 705.75 l 1
 79.625 705.75 l 1
 74 705.75 l 1
 74 711.375 l 1
 74 717 l 1
 74 752.25 l 1
 74 757.875 l 1
 74 763.5 l 1x0c
74 649.75 m 1xac
 79.625 649.75 l 1
 85.25 649.75 l 1
 186.125 649.75 l 1
 191.75 649.75 l 1
 191.75 644.125 l 1
 191.75 12.25 l 1
 191.75 1 l 1
 186.125 1 l 1
 85.25 1 l 1
 79.625 1 l 1
 74 1 l 1
 74 6.625 l 1
 74 12.25 l 1
 74 638.5 l 1
 74 644.125 l 1
 74 649.75 l 1xac
EndSplineSet
Validated: 524289
EndChar

StartChar: igrave
Encoding: 236 236 103
Width: 268
VWidth: 0
Flags: W
HStem: 1 21G<74 191.75> 1 21G<74 191.75> 629.75 20G<74 191.75> 629.75 20G<74 191.75> 705.75 57.75<74 192.375>
VStem: 74 117.75<1 649.75 705.75 763.5>
LayerCount: 2
Fore
SplineSet
74 763.5 m 1x0c
 79.625 763.5 l 1
 85.25 763.5 l 1
 186.75 763.5 l 1
 192.375 763.5 l 1
 192.375 757.875 l 1
 192.375 717 l 1
 192.375 705.75 l 1
 186.75 705.75 l 1
 85.25 705.75 l 1
 79.625 705.75 l 1
 74 705.75 l 1
 74 711.375 l 1
 74 717 l 1
 74 752.25 l 1
 74 757.875 l 1
 74 763.5 l 1x0c
74 649.75 m 1xac
 79.625 649.75 l 1
 85.25 649.75 l 1
 186.125 649.75 l 1
 191.75 649.75 l 1
 191.75 644.125 l 1
 191.75 12.25 l 1
 191.75 1 l 1
 186.125 1 l 1
 85.25 1 l 1
 79.625 1 l 1
 74 1 l 1
 74 6.625 l 1
 74 12.25 l 1
 74 638.5 l 1
 74 644.125 l 1
 74 649.75 l 1xac
EndSplineSet
Validated: 524289
EndChar

StartChar: iacute
Encoding: 237 237 104
Width: 268
VWidth: 0
Flags: W
HStem: 1 21G<74 191.75> 1 21G<74 191.75> 629.75 20G<74 191.75> 629.75 20G<74 191.75> 705.75 57.75<74 192.375>
VStem: 74 117.75<1 649.75 705.75 763.5>
LayerCount: 2
Fore
SplineSet
74 763.5 m 1x0c
 79.625 763.5 l 1
 85.25 763.5 l 1
 186.75 763.5 l 1
 192.375 763.5 l 1
 192.375 757.875 l 1
 192.375 717 l 1
 192.375 705.75 l 1
 186.75 705.75 l 1
 85.25 705.75 l 1
 79.625 705.75 l 1
 74 705.75 l 1
 74 711.375 l 1
 74 717 l 1
 74 752.25 l 1
 74 757.875 l 1
 74 763.5 l 1x0c
74 649.75 m 1xac
 79.625 649.75 l 1
 85.25 649.75 l 1
 186.125 649.75 l 1
 191.75 649.75 l 1
 191.75 644.125 l 1
 191.75 12.25 l 1
 191.75 1 l 1
 186.125 1 l 1
 85.25 1 l 1
 79.625 1 l 1
 74 1 l 1
 74 6.625 l 1
 74 12.25 l 1
 74 638.5 l 1
 74 644.125 l 1
 74 649.75 l 1xac
EndSplineSet
Validated: 524289
EndChar

StartChar: icircumflex
Encoding: 238 238 105
Width: 268
VWidth: 0
Flags: W
HStem: 1 21G<74 191.75> 1 21G<74 191.75> 629.75 20G<74 191.75> 629.75 20G<74 191.75> 705.75 57.75<74 192.375>
VStem: 74 117.75<1 649.75 705.75 763.5>
LayerCount: 2
Fore
SplineSet
74 763.5 m 1x0c
 79.625 763.5 l 1
 85.25 763.5 l 1
 186.75 763.5 l 1
 192.375 763.5 l 1
 192.375 757.875 l 1
 192.375 717 l 1
 192.375 705.75 l 1
 186.75 705.75 l 1
 85.25 705.75 l 1
 79.625 705.75 l 1
 74 705.75 l 1
 74 711.375 l 1
 74 717 l 1
 74 752.25 l 1
 74 757.875 l 1
 74 763.5 l 1x0c
74 649.75 m 1xac
 79.625 649.75 l 1
 85.25 649.75 l 1
 186.125 649.75 l 1
 191.75 649.75 l 1
 191.75 644.125 l 1
 191.75 12.25 l 1
 191.75 1 l 1
 186.125 1 l 1
 85.25 1 l 1
 79.625 1 l 1
 74 1 l 1
 74 6.625 l 1
 74 12.25 l 1
 74 638.5 l 1
 74 644.125 l 1
 74 649.75 l 1xac
EndSplineSet
Validated: 524289
EndChar

StartChar: idieresis
Encoding: 239 239 106
Width: 268
VWidth: 0
Flags: W
HStem: 1 21G<74 191.75> 1 21G<74 191.75> 629.75 20G<74 191.75> 629.75 20G<74 191.75> 705.75 57.75<74 192.375>
VStem: 74 117.75<1 649.75 705.75 763.5>
LayerCount: 2
Fore
SplineSet
74 763.5 m 1x0c
 79.625 763.5 l 1
 85.25 763.5 l 1
 186.75 763.5 l 1
 192.375 763.5 l 1
 192.375 757.875 l 1
 192.375 717 l 1
 192.375 705.75 l 1
 186.75 705.75 l 1
 85.25 705.75 l 1
 79.625 705.75 l 1
 74 705.75 l 1
 74 711.375 l 1
 74 717 l 1
 74 752.25 l 1
 74 757.875 l 1
 74 763.5 l 1x0c
74 649.75 m 1xac
 79.625 649.75 l 1
 85.25 649.75 l 1
 186.125 649.75 l 1
 191.75 649.75 l 1
 191.75 644.125 l 1
 191.75 12.25 l 1
 191.75 1 l 1
 186.125 1 l 1
 85.25 1 l 1
 79.625 1 l 1
 74 1 l 1
 74 6.625 l 1
 74 12.25 l 1
 74 638.5 l 1
 74 644.125 l 1
 74 649.75 l 1xac
EndSplineSet
Validated: 524289
EndChar

StartChar: ograve
Encoding: 242 242 107
Width: 765
VWidth: 0
Flags: W
HStem: 0 117.375<289.438 468.049> 531.375 117.375<289.438 468.049> 705.75 57.75<216.625 547>
VStem: 54 117.75<235.075 413.674> 585.75 117.375<235.076 413.673>
LayerCount: 2
Fore
SplineSet
216.625 763.5 m 5
 222.25 763.5 l 5
 227.875 763.5 l 5
 541.375 763.5 l 5
 547 763.5 l 5
 547 757.875 l 5
 547 717 l 5
 547 705.75 l 5
 541.375 705.75 l 5
 227.875 705.75 l 5
 222.25 705.75 l 5
 216.625 705.75 l 5
 216.625 711.375 l 5
 216.625 717 l 5
 216.625 752.25 l 5
 216.625 757.875 l 5
 216.625 763.5 l 5
378.75 531.375 m 0
 264.419 531.375 171.75 438.706 171.75 324.375 c 0
 171.75 210.041 264.419 117.375 378.75 117.375 c 0
 493.084 117.375 585.75 210.041 585.75 324.375 c 0
 585.75 438.706 493.084 531.375 378.75 531.375 c 0
378.75 648.75 m 0
 558.032 648.75 703.125 503.657 703.125 324.375 c 0
 703.125 145.093 558.032 0 378.75 0 c 0
 199.471 0 54 145.084 54 324.375 c 0
 54 503.663 199.471 648.75 378.75 648.75 c 0
EndSplineSet
Validated: 524289
EndChar

StartChar: oacute
Encoding: 243 243 108
Width: 765
VWidth: 0
Flags: W
HStem: 0 117.375<289.438 468.049> 531.375 117.375<289.438 468.049> 705.75 57.75<216.625 547>
VStem: 54 117.75<235.075 413.674> 585.75 117.375<235.076 413.673>
LayerCount: 2
Fore
SplineSet
216.625 763.5 m 5
 222.25 763.5 l 5
 227.875 763.5 l 5
 541.375 763.5 l 5
 547 763.5 l 5
 547 757.875 l 5
 547 717 l 5
 547 705.75 l 5
 541.375 705.75 l 5
 227.875 705.75 l 5
 222.25 705.75 l 5
 216.625 705.75 l 5
 216.625 711.375 l 5
 216.625 717 l 5
 216.625 752.25 l 5
 216.625 757.875 l 5
 216.625 763.5 l 5
378.75 531.375 m 0
 264.419 531.375 171.75 438.706 171.75 324.375 c 0
 171.75 210.041 264.419 117.375 378.75 117.375 c 0
 493.084 117.375 585.75 210.041 585.75 324.375 c 0
 585.75 438.706 493.084 531.375 378.75 531.375 c 0
378.75 648.75 m 0
 558.032 648.75 703.125 503.657 703.125 324.375 c 0
 703.125 145.093 558.032 0 378.75 0 c 0
 199.471 0 54 145.084 54 324.375 c 0
 54 503.663 199.471 648.75 378.75 648.75 c 0
EndSplineSet
Validated: 524289
EndChar

StartChar: ocircumflex
Encoding: 244 244 109
Width: 765
VWidth: 0
Flags: W
HStem: 0 117.375<289.438 468.049> 531.375 117.375<289.438 468.049> 705.75 57.75<216.625 547>
VStem: 54 117.75<235.075 413.674> 585.75 117.375<235.076 413.673>
LayerCount: 2
Fore
SplineSet
216.625 763.5 m 5
 222.25 763.5 l 5
 227.875 763.5 l 5
 541.375 763.5 l 5
 547 763.5 l 5
 547 757.875 l 5
 547 717 l 5
 547 705.75 l 5
 541.375 705.75 l 5
 227.875 705.75 l 5
 222.25 705.75 l 5
 216.625 705.75 l 5
 216.625 711.375 l 5
 216.625 717 l 5
 216.625 752.25 l 5
 216.625 757.875 l 5
 216.625 763.5 l 5
378.75 531.375 m 0
 264.419 531.375 171.75 438.706 171.75 324.375 c 0
 171.75 210.041 264.419 117.375 378.75 117.375 c 0
 493.084 117.375 585.75 210.041 585.75 324.375 c 0
 585.75 438.706 493.084 531.375 378.75 531.375 c 0
378.75 648.75 m 0
 558.032 648.75 703.125 503.657 703.125 324.375 c 0
 703.125 145.093 558.032 0 378.75 0 c 0
 199.471 0 54 145.084 54 324.375 c 0
 54 503.663 199.471 648.75 378.75 648.75 c 0
EndSplineSet
Validated: 524289
EndChar

StartChar: otilde
Encoding: 245 245 110
Width: 765
VWidth: 0
Flags: W
HStem: 0 117.375<289.438 468.049> 531.375 117.375<289.438 468.049> 705.75 57.75<216.625 547>
VStem: 54 117.75<235.075 413.674> 585.75 117.375<235.076 413.673>
LayerCount: 2
Fore
SplineSet
216.625 763.5 m 5
 222.25 763.5 l 5
 227.875 763.5 l 5
 541.375 763.5 l 5
 547 763.5 l 5
 547 757.875 l 5
 547 717 l 5
 547 705.75 l 5
 541.375 705.75 l 5
 227.875 705.75 l 5
 222.25 705.75 l 5
 216.625 705.75 l 5
 216.625 711.375 l 5
 216.625 717 l 5
 216.625 752.25 l 5
 216.625 757.875 l 5
 216.625 763.5 l 5
378.75 531.375 m 0
 264.419 531.375 171.75 438.706 171.75 324.375 c 0
 171.75 210.041 264.419 117.375 378.75 117.375 c 0
 493.084 117.375 585.75 210.041 585.75 324.375 c 0
 585.75 438.706 493.084 531.375 378.75 531.375 c 0
378.75 648.75 m 0
 558.032 648.75 703.125 503.657 703.125 324.375 c 0
 703.125 145.093 558.032 0 378.75 0 c 0
 199.471 0 54 145.084 54 324.375 c 0
 54 503.663 199.471 648.75 378.75 648.75 c 0
EndSplineSet
Validated: 524289
EndChar

StartChar: odieresis
Encoding: 246 246 111
Width: 765
VWidth: 0
Flags: W
HStem: 0 117.375<289.438 468.049> 531.375 117.375<289.438 468.049> 705.75 57.75<216.625 547>
VStem: 54 117.75<235.075 413.674> 585.75 117.375<235.076 413.673>
LayerCount: 2
Fore
SplineSet
216.625 763.5 m 5
 222.25 763.5 l 5
 227.875 763.5 l 5
 541.375 763.5 l 5
 547 763.5 l 5
 547 757.875 l 5
 547 717 l 5
 547 705.75 l 5
 541.375 705.75 l 5
 227.875 705.75 l 5
 222.25 705.75 l 5
 216.625 705.75 l 5
 216.625 711.375 l 5
 216.625 717 l 5
 216.625 752.25 l 5
 216.625 757.875 l 5
 216.625 763.5 l 5
378.75 531.375 m 0
 264.419 531.375 171.75 438.706 171.75 324.375 c 0
 171.75 210.041 264.419 117.375 378.75 117.375 c 0
 493.084 117.375 585.75 210.041 585.75 324.375 c 0
 585.75 438.706 493.084 531.375 378.75 531.375 c 0
378.75 648.75 m 0
 558.032 648.75 703.125 503.657 703.125 324.375 c 0
 703.125 145.093 558.032 0 378.75 0 c 0
 199.471 0 54 145.084 54 324.375 c 0
 54 503.663 199.471 648.75 378.75 648.75 c 0
EndSplineSet
Validated: 524289
EndChar

StartChar: ugrave
Encoding: 249 249 112
Width: 632
VWidth: 0
Flags: W
HStem: 0 117.375<244.799 385.018> 629.125 20G<69 186.75 441 558.75> 629.125 20G<69 186.75 441 558.75> 705.75 57.75<145.625 476>
VStem: 69 117.75<177.777 250.5 250.5 649.125> 441 117.75<176.891 236.25 236.25 649.125>
LayerCount: 2
Fore
SplineSet
145.625 763.5 m 5x9c
 151.25 763.5 l 5
 156.875 763.5 l 5
 470.375 763.5 l 5
 476 763.5 l 5
 476 757.875 l 5
 476 717 l 5
 476 705.75 l 5
 470.375 705.75 l 5
 156.875 705.75 l 5
 151.25 705.75 l 5
 145.625 705.75 l 5
 145.625 711.375 l 5
 145.625 717 l 5
 145.625 752.25 l 5
 145.625 757.875 l 5
 145.625 763.5 l 5x9c
69 649.125 m 1xdc
 74.625 649.125 l 1
 80.25 649.125 l 1
 181.125 649.125 l 1
 186.75 649.125 l 1
 186.75 643.5 l 1
 186.75 250.5 l 1
 186.75 244.875 l 2
 186.75 174.398 243.416 117.375 313.875 117.375 c 0
 383.941 117.375 441 174.416 441 244.875 c 2
 441 637.875 l 1
 441 643.5 l 1
 441 649.125 l 1
 446.625 649.125 l 1
 452.25 649.125 l 1
 553.125 649.125 l 1
 558.75 649.125 l 1
 558.75 643.5 l 1
 558.75 250.5 l 1
 558.75 244.875 l 1
 558.75 236.25 l 1
 558.562 236.25 l 1
 554.039 104.824 446.045 0 313.875 0 c 0
 178.84 0 69 109.462 69 244.875 c 2
 69 248.25 l 1
 69 250.5 l 1
 69 637.875 l 1
 69 643.5 l 1
 69 649.125 l 1xdc
EndSplineSet
Validated: 524289
EndChar

StartChar: uacute
Encoding: 250 250 113
Width: 632
VWidth: 0
Flags: W
HStem: 0 117.375<244.799 385.018> 629.125 20G<69 186.75 441 558.75> 629.125 20G<69 186.75 441 558.75> 705.75 57.75<145.625 476>
VStem: 69 117.75<177.777 250.5 250.5 649.125> 441 117.75<176.891 236.25 236.25 649.125>
LayerCount: 2
Fore
SplineSet
145.625 763.5 m 5x9c
 151.25 763.5 l 5
 156.875 763.5 l 5
 470.375 763.5 l 5
 476 763.5 l 5
 476 757.875 l 5
 476 717 l 5
 476 705.75 l 5
 470.375 705.75 l 5
 156.875 705.75 l 5
 151.25 705.75 l 5
 145.625 705.75 l 5
 145.625 711.375 l 5
 145.625 717 l 5
 145.625 752.25 l 5
 145.625 757.875 l 5
 145.625 763.5 l 5x9c
69 649.125 m 1xdc
 74.625 649.125 l 1
 80.25 649.125 l 1
 181.125 649.125 l 1
 186.75 649.125 l 1
 186.75 643.5 l 1
 186.75 250.5 l 1
 186.75 244.875 l 2
 186.75 174.398 243.416 117.375 313.875 117.375 c 0
 383.941 117.375 441 174.416 441 244.875 c 2
 441 637.875 l 1
 441 643.5 l 1
 441 649.125 l 1
 446.625 649.125 l 1
 452.25 649.125 l 1
 553.125 649.125 l 1
 558.75 649.125 l 1
 558.75 643.5 l 1
 558.75 250.5 l 1
 558.75 244.875 l 1
 558.75 236.25 l 1
 558.562 236.25 l 1
 554.039 104.824 446.045 0 313.875 0 c 0
 178.84 0 69 109.462 69 244.875 c 2
 69 248.25 l 1
 69 250.5 l 1
 69 637.875 l 1
 69 643.5 l 1
 69 649.125 l 1xdc
EndSplineSet
Validated: 524289
EndChar

StartChar: ucircumflex
Encoding: 251 251 114
Width: 632
VWidth: 0
Flags: W
HStem: 0 117.375<244.799 385.018> 629.125 20G<69 186.75 441 558.75> 629.125 20G<69 186.75 441 558.75> 705.75 57.75<145.625 476>
VStem: 69 117.75<177.777 250.5 250.5 649.125> 441 117.75<176.891 236.25 236.25 649.125>
LayerCount: 2
Fore
SplineSet
145.625 763.5 m 5x9c
 151.25 763.5 l 5
 156.875 763.5 l 5
 470.375 763.5 l 5
 476 763.5 l 5
 476 757.875 l 5
 476 717 l 5
 476 705.75 l 5
 470.375 705.75 l 5
 156.875 705.75 l 5
 151.25 705.75 l 5
 145.625 705.75 l 5
 145.625 711.375 l 5
 145.625 717 l 5
 145.625 752.25 l 5
 145.625 757.875 l 5
 145.625 763.5 l 5x9c
69 649.125 m 1xdc
 74.625 649.125 l 1
 80.25 649.125 l 1
 181.125 649.125 l 1
 186.75 649.125 l 1
 186.75 643.5 l 1
 186.75 250.5 l 1
 186.75 244.875 l 2
 186.75 174.398 243.416 117.375 313.875 117.375 c 0
 383.941 117.375 441 174.416 441 244.875 c 2
 441 637.875 l 1
 441 643.5 l 1
 441 649.125 l 1
 446.625 649.125 l 1
 452.25 649.125 l 1
 553.125 649.125 l 1
 558.75 649.125 l 1
 558.75 643.5 l 1
 558.75 250.5 l 1
 558.75 244.875 l 1
 558.75 236.25 l 1
 558.562 236.25 l 1
 554.039 104.824 446.045 0 313.875 0 c 0
 178.84 0 69 109.462 69 244.875 c 2
 69 248.25 l 1
 69 250.5 l 1
 69 637.875 l 1
 69 643.5 l 1
 69 649.125 l 1xdc
EndSplineSet
Validated: 524289
EndChar

StartChar: udieresis
Encoding: 252 252 115
Width: 632
VWidth: 0
Flags: W
HStem: 0 117.375<244.799 385.018> 629.125 20G<69 186.75 441 558.75> 629.125 20G<69 186.75 441 558.75> 705.75 57.75<145.625 476>
VStem: 69 117.75<177.777 250.5 250.5 649.125> 441 117.75<176.891 236.25 236.25 649.125>
LayerCount: 2
Fore
SplineSet
145.625 763.5 m 5x9c
 151.25 763.5 l 5
 156.875 763.5 l 5
 470.375 763.5 l 5
 476 763.5 l 5
 476 757.875 l 5
 476 717 l 5
 476 705.75 l 5
 470.375 705.75 l 5
 156.875 705.75 l 5
 151.25 705.75 l 5
 145.625 705.75 l 5
 145.625 711.375 l 5
 145.625 717 l 5
 145.625 752.25 l 5
 145.625 757.875 l 5
 145.625 763.5 l 5x9c
69 649.125 m 1xdc
 74.625 649.125 l 1
 80.25 649.125 l 1
 181.125 649.125 l 1
 186.75 649.125 l 1
 186.75 643.5 l 1
 186.75 250.5 l 1
 186.75 244.875 l 2
 186.75 174.398 243.416 117.375 313.875 117.375 c 0
 383.941 117.375 441 174.416 441 244.875 c 2
 441 637.875 l 1
 441 643.5 l 1
 441 649.125 l 1
 446.625 649.125 l 1
 452.25 649.125 l 1
 553.125 649.125 l 1
 558.75 649.125 l 1
 558.75 643.5 l 1
 558.75 250.5 l 1
 558.75 244.875 l 1
 558.75 236.25 l 1
 558.562 236.25 l 1
 554.039 104.824 446.045 0 313.875 0 c 0
 178.84 0 69 109.462 69 244.875 c 2
 69 248.25 l 1
 69 250.5 l 1
 69 637.875 l 1
 69 643.5 l 1
 69 649.125 l 1xdc
EndSplineSet
Validated: 524289
EndChar

